<svg xmlns="http://www.w3.org/2000/svg" viewBox="0 0 1571.83 827.71"><defs><style>.cls-1{fill:#000;}</style></defs><title>vector</title><g id="Layer_2" data-name="Layer 2"><g id="Layer_1-2" data-name="Layer 1"><path class="cls-1" d="M1570.39,251c-1.3-.89-4.16-.62-5.56.67a18,18,0,0,0-3,3.21c-3.25,4.87-8.34,7.75-12.49,11.64-3,2.78-6.52,4.94-9.65,7.57-6.82,5.74-13.76,11.36-21.54,15.7-6.78,3.79-12.73,8.64-18.86,13.27-3.5,2.64-7.52,3.32-11.49,4-1.69.3-3.68-1-5.58-1.64.24-3,2.21-4.24,4-5.59a5.92,5.92,0,0,0,2.59-4.72c.07-2.28-1.43-3.49-3.61-2.64a40.23,40.23,0,0,0-5.25,2.82c-1.84,1.07-3.52,2.5-5.48,3.23-4,1.5-8,2.69-12.12,3.9-3.15.93-5.16-.61-5.24-4a16.84,16.84,0,0,1,.44-3.14c1.14-7,2.34-13.9,3.41-20.86.41-2.65-.36-4.09-2.08-4.63-1.55-.48-2.95.42-4.35,2.58-2.09,3.23-4.32,6.37-6.39,9.61-4.13,6.48-9.86,11.83-13.28,18.84-.4.82-1.51,1.29-2.29,1.93a20.91,20.91,0,0,1-2-2.68c-1-1.82-1.5-4-2.79-5.56-2.45-3-5.32-5.57-8-8.34s-4.08-2.92-6.92,0a11.18,11.18,0,0,0-1.52,1.84c-2.68,4.14-3.44,4.36-7.63,2-1-.57-2-1.25-2.87-1.85a7.53,7.53,0,0,1,.43-1c2.43-3.33,2.42-3.38-.88-5.74a6.77,6.77,0,0,1-2.83-6.28c.34-4.61,1-9.2,1.47-13.8.23-2.08.73-4.18-.26-6.15a5.15,5.15,0,0,0-5,.81c-1.3.91-2.44,2.06-3.75,3-2.21,1.54-3.92,3.87-7,4.63-.88-2-3-3.42-2-5.83a83.71,83.71,0,0,1,3.89-7.75,6.56,6.56,0,0,0-2.37-9.19c-1.36-.83-2.83-1.51-4.12-2.43a7.5,7.5,0,0,1-2.45-2.5,33,33,0,0,1-3.59-13.4,20.25,20.25,0,0,1,2.62-10.73,5,5,0,0,1,2.87-2.37c1.61-.31,2.43,1.11,3.06,2.58,1.37,3.22,3.2,6.08,6.4,7.92a5.53,5.53,0,0,1,2.88,4.93c.08,3,.37,6.11.74,9.14a5.09,5.09,0,0,0,3.54,4.42c1.93.67,2.87-1,4-2a11.77,11.77,0,0,0,1.29-1.52c3.39-4.1,6.82-8.17,10.16-12.31,2.64-3.29,5.64-5.44,10.21-5.1,2.61.19,5.29-.49,8-.69a13.79,13.79,0,0,1,4.35,0c2.81.73,4.6-.6,6.24-2.48,2.88-3.3,5.73-6.62,8.59-9.94,2-2.31,3.89-4.69,6-6.92,1-1.11,2.11-2.47,4-1.88a15.85,15.85,0,0,1-1,9c-1.44,3.49-1.26,4.9,1.53,7.36,3.24,2.85,4.93,6.48,6.19,10.5a36.28,36.28,0,0,0,3.31,7.16,11.72,11.72,0,0,1,2,6.73,17.6,17.6,0,0,0,.32,4c2.3,13.16,1.55,26.19-1.26,39.19a27.11,27.11,0,0,0-.07,6.74,3,3,0,0,0,2.77,2.94c1.7.22,2.62-.84,3.29-2.33a145.16,145.16,0,0,1,6.36-13.53c3.22-5.58,3.82-11.91,5.11-17.89,1.22-5.63,2-11.45,3.34-17.09.71-2.9.89-6.11,3.85-8,.64-.42.74-1.65,1.09-2.51q4.08-10,8.17-19.91c.15-.36.32-.83.63-1,3-1.81,3-4.93,2.86-7.72-.12-3.69.19-7.1,2-10.42a19.29,19.29,0,0,0,1.46-5.36,4.92,4.92,0,0,0-2.44-5c-2-1.05-3.25.42-4.48,1.58a6.73,6.73,0,0,0-1.28,2c-1.07,2.13-2,4.34-3.16,6.4-.37.66-1.35,1-2.06,1.44-.39-.64-1.09-1.26-1.12-1.91-.25-5.26-.38-10.52-.53-15.78a.89.89,0,0,1,.09-.39c2.07-5.24,3.08-11.06,8.77-14.15,2-1.06,2.91-3.91,1.73-5.16-3-3.17-3.25-6.39-1.42-10.1.13-.27-.28-.77-.23-1.14s.18-1.12.51-1.33c2.73-1.74,1.59-4.17,1.3-6.48-.15-1.26-.58-2.71-.15-3.79,2.46-6.16,5.16-12.22,7.75-18.34a10.3,10.3,0,0,0,.91-3,4.35,4.35,0,0,0-2.88-4.31c-1.75-.6-2.74.55-3.69,1.68-.51.6-.79,1.38-1.29,2-1.31,1.62-2.39,3.54-4.93,4.1-1.52-1.73-3.77-3.27-4.44-5.32a52.77,52.77,0,0,1-2.09-11.7c-.21-2.36-1-3.74-3.21-4.42-.73-.23-1.44-.51-2-.7-.11-2,.31-3.92-.4-5.26a15.4,15.4,0,0,1-1.47-8.51,17.37,17.37,0,0,0-1-8.21c-.48-1.09-.16-2.57-.07-3.87.51-7.16,1-14.29-.65-21.41a62.61,62.61,0,0,1-1.79-11.76c-.29-7.56-.1-15.14-.14-22.71,0-1.33-.17-2.66-.31-4-.17-1.61-.32-3.28-2.32-3.73-1.77-.4-3.38.44-4.31,2.7a30.14,30.14,0,0,0-1.79,6.47c-.84,5.1-1.17,10.3-2.27,15.34-.87,4-2.73,7.7-2.1,12,.2,1.39-.37,2.89-.57,4.34-.14,1-.65,2.26-.3,3.13,1.19,2.95.17,5.76,0,8.66a82.53,82.53,0,0,0,.38,8.29c.07,1.31.16,2.64.1,3.95-.14,3.19-.49,6.37-.54,9.56,0,3.44.16,6.88.22,10.32s.09,6.89.06,10.33a18,18,0,0,1-.8,3c-1-1.44-1.55-2.21-2.11-3a26.58,26.58,0,0,0-1.73-2.2c-2.3-2.49-4.5-2-5.61,1.19a7.92,7.92,0,0,0-.48,3.11,42.5,42.5,0,0,0,1,7.91c1.63,6,1.55,12.34,4.45,18,.92,1.8.85,4.13,1.1,6.24a6.46,6.46,0,0,1-.42,2l-.79.19c-1-1.69-1.93-3.37-2.89-5.05s-1.66-3.73-3-5.09a72.38,72.38,0,0,0-8.42-7.33c-1.58-1.18-2.8-2.33-3.18-4.31-.56-2.9-2.53-4.52-5.19-5.46a22.63,22.63,0,0,0-3.4-1.14c-4.71-.83-9.43-1.74-14.2-.49-1.66.44-3,1.3-3,3.24s.9,3.42,2.48,3.71c4.3.8,6.83,4,9.74,6.65,1.82,1.67,3.79,3.56,3.25,6.48s.36,5.13,1.78,7.54c2.84,4.82,4.36,9.92,2.54,15.62a58.83,58.83,0,0,0-2.21,9.71,6.5,6.5,0,0,1-4.6,5.85,29.09,29.09,0,0,0-3.29,1.45c-3.38,1.66-6.77,2.79-10.72,2.36a7.2,7.2,0,0,0-7,3.79c-1.51,2.49-3.05,5-4.59,7.46-.7,1.12-1.43,2.2-3,1.63-.13-.46-.33-.77-.25-.95,1.74-3.87,1.79-4-1.91-5.91a3.79,3.79,0,0,1-2.24-3.48c-.11-3.45-.21-6.91,0-10.35.18-3,.93-6,1.14-9.09.25-3.72-2.27-5.58-5.61-4.18-2.07.88-4.43,1.74-5.87,3.33-3.83,4.21-7.29,8.77-10.74,13.3-1.26,1.65-1.94,3.77-4.46,4.53a9,9,0,0,0-5.23-5.16,7.17,7.17,0,0,1-4.26-5.82,12.44,12.44,0,0,0-3.23-7.09c-1-1-1.15-3.16-1.15-4.79,0-4.79.3-9.57.51-14.35.25-5.69-.48-11.41,1.1-17.06a10.63,10.63,0,0,0-.33-5.49c-.67-2.34-3.49-3.52-5.08-2-3.14,2.92-6.9,5.63-6.43,10.83a10.77,10.77,0,0,1-.53,3.92c-1.55,5.21-3.18,10.41-4.82,15.59-.6,1.89-1.36,3.73-2,5.62-1.71,5.44-3.43,10.89-5,16.35-.66,2.25-.57,4.76-2.44,6.56-2,.06-2.41-1.48-3-2.74-.75-1.51-1.86-2.28-3.53-1.91a3.33,3.33,0,0,0-2.94,3.27,19.91,19.91,0,0,0-.13,2.78,56.19,56.19,0,0,0,6,19.35,20.71,20.71,0,0,1,1.83,6c.72,4.59.6,9.4,1.91,13.79a75.85,75.85,0,0,1,3.19,16.8,34.12,34.12,0,0,1-4.53,19.07c-2.09,3.71-4.52,7.16-5.6,11.35-.42,1.66-1.44,2.83-3.9,2.9a21.89,21.89,0,0,0-1.78-2.16c-1.88-1.83-3.56-2.17-5.4-1.21-2,1.05-2.33,2.82-1.82,4.78.9,3.45,1.74,6.93,2.91,10.29,2,5.77,3.38,11.8,6.77,17,1.69,2.61,1.5,5.58,1.46,8.49a24.63,24.63,0,0,1-.44,3.92c-.81,4.56-.12,9.35-2.26,13.7a3.51,3.51,0,0,0,.34,3.73,137.65,137.65,0,0,1,13,26.44,21.47,21.47,0,0,0,2,3.92c1.49,2.3,4.25,2.33,6,.21,1.5-1.82,1.48-3.85,1.18-6.05s-.32-4.73-.4-7.1a40.72,40.72,0,0,0-.08-5.19c-.63-3.74.63-7.05,1.76-10.47,1.05-3.14,1.91-6.36,2.68-9.59.85-3.61,1.4-7.3,2.27-10.91a8.72,8.72,0,0,1,3-5.31,9.17,9.17,0,0,1,2.23,8.4c-.34,1.91-.31,3.47,1.14,5.13a5.79,5.79,0,0,1,1.14,4.39,90.31,90.31,0,0,1-3.28,11.84c-1.57,4.52-3.49,8.92-5.32,13.35a9.74,9.74,0,0,0,0,7.76c1.94,4.68,3.46,9.4,3.21,14.62-.18,3.7.24,7.43.4,11.14a12,12,0,0,0,.13,2,3.53,3.53,0,0,0,3.4,2.89c1.25,0,3.14-.67,3.68-1.64a16.1,16.1,0,0,0,2.23-6.74c.43-9.32,3.92-17.59,8.19-25.63,1.23-2.33,3.3-3.39,5.59-2.85a3.2,3.2,0,0,1,2.09,1.53c1.33,3.83,2.58,7.7,3.59,11.63.82,3.18,1.59,6.25,5.37,7.23-.11,2.09-.12,4.38,2.36,4.42,1.81,0,3.64-1,5.5-1.59a8.33,8.33,0,0,1,.6,1.11c1,2.93-.36,5.76-.38,8.53,0,5.06-2.43,9.22-3.88,13.69a31.84,31.84,0,0,1-5.06,10.29c-1.66,2.07-2.41,5-3,7.74-.79,3.75,2.63,7,5.52,5.19,4.69-2.88,10.59-3.88,13.9-9a7.91,7.91,0,0,1,1.52.85c2.32,2.16,4.67,4.3,6.86,6.58a3.09,3.09,0,0,1,.78,2.45c-1,4.29-.82,8.91-3.85,12.68a8.14,8.14,0,0,0-1.41,4.79c0,2.77,2.4,3.95,4.73,2.49,1.24-.78,2.27-1.87,3.47-2.7,1.36-.94,2.81-1.75,4-2.48a5.16,5.16,0,0,1,.8.57,3.49,3.49,0,0,1,.4.67c.71,1.69,3.7,7.58,6.1,8.71.27-1.14,1-2.49,0-3-.79,3.37-1.53,6.75-2.11,10.16-.73,4.29-4.55,8.41-8.85,7.88s-6.81,1.17-9.32,4.05c-3.31,3.81-6.53,7.75-11,10.31a6.69,6.69,0,0,0-1.65,1.7c-3.82,4.74-6.19,10.54-11,14.62-1.54,1.32-1.39,4.7-.26,5.87,1.45,1.53,3.38,1.54,5.78,0,.66-.43,1.21-1,1.85-1.5,1.16-.87,2.37-1.68,3.51-2.59a21.48,21.48,0,0,0,3.87-3.33,7.69,7.69,0,0,1,6.09-3.24c3.45-.08,6.91.1,10.37.22a2.14,2.14,0,0,1,1.43.56c1.46,1.8,3.54,2.19,5.57,2.87,3.21,1.08,4.36,3.46,4,6.9a38.33,38.33,0,0,0,0,6.69c.13,1.6,0,2.92-1.43,3.86s-2.66,1.75-4,2.56c-2.27,1.36-4.59,2.61-6.84,4-1.92,1.17-3.62,3-5.68,3.58-3.86,1.06-5.85,3.31-6.5,7.09-.16.91-.57,1.79-.66,2.71-.2,2.11-1.39,3.62-2.64,5.23-3.2,4.09-8.43,4.93-12.29,7.92a1.77,1.77,0,0,1-1.18.1,31.86,31.86,0,0,1-5.45-.83c-2-.61-3.62-.43-5.07,1.14a13.1,13.1,0,0,1-1.67,1.33c-2.5-.73-3.15-2.49-2.59-4.44a53.06,53.06,0,0,1,3.35-9.32c2.13-4.22,4.76-8.18,7.12-12.29,1.32-2.3.95-4.05-1-5.54-1.69-1.27-3.61-1.05-5.32.79-1,1.07-1.62,2.49-2.69,3.44-3.56,3.16-7.25,6.19-10.87,9.27-3.08,2.63-7,4.35-8.64,8.54-.45,1.16-1.78,2-2.61,3-1.39,1.76-2.69,3.58-4,5.38-1.18,1.58-2.28,3.23-3.56,4.72-4,4.64-8,9.19-12,13.83-1.62,1.89-3.39,2.87-5.29,2.09-.73-2.1-.87-4-1.89-5.14-2.73-3-2.64-6.14-1.6-9.64.61-2,1.06-4.12,1.49-6.2.53-2.53,0-3.73-1.82-4.61s-3.23-.37-4.83,1.51c-2.48,2.93-4.82,6-7.41,8.81a16.26,16.26,0,0,1-4.89,4c-2.61,1.18-4.41,3.12-6.46,4.93a11.28,11.28,0,0,0-3.79,8.84,47.32,47.32,0,0,1-1.81,11.28c-1.78,6.69-6.75,9.29-12.59,10.76-4.23,1.06-5.25,2-4.43,6.22a14.81,14.81,0,0,1-1,9.72c-1.56,3-3.6,5.75-3.84,9.32a4.78,4.78,0,0,1-1.34,2.42c-3.66,4.17-7.45,8.23-11.16,12.34-4.34,4.82-8.84,9.51-12.69,14.72-1.88,2.56-3.61,5.14-6.18,7.05a12.58,12.58,0,0,0-1.31,1.49c-2.56,2.69-4.86,5.72-7.76,8-4,3.11-5.91,7.76-9.18,11.38-.6.66-.37,2.65.2,3.6.46.77,2,1.13,3.07,1.22a4.93,4.93,0,0,0,2.57-.9c5.42-3.1,10.8-6.28,16.22-9.37,3.44-2,6.87-4,10.41-5.71s7.25-3.25,10.87-4.89,7.92-1.59,10.32-5.39c.12-.19.47-.23.72-.32,5.1-1.74,9.79-4.79,15.46-4.79.88,0,1.81-.9,2.61-1.52,3.63-2.82,5.3-6.86,5.88-11.15.87-6.43,4.81-10.08,10.09-12.9a23.52,23.52,0,0,0,4-2.69c2-1.7,3.91-3.57,5.9-5.3,2.77-2.41,5.65-4.71,8.36-7.18a4,4,0,0,0,1.42-2.69c-.11-2.12,1.22-3.21,2.55-4.24a45.48,45.48,0,0,1,4.43-2.65c2.25-1.36,4.52-2.69,6.72-4.13,2.6-1.72,5.76-.7,7,2.36.92,2.23,2.55,3.58,4.37,3.22a8,8,0,0,0,3.18-1.55c4.1-3.19,9-4.45,13.76-6.23a4.86,4.86,0,0,1,4.15.42c4.29,2.1,8.82,3.65,13.71,3a30.56,30.56,0,0,1,16,2,53.17,53.17,0,0,0,7.5,2.75,16.23,16.23,0,0,0,6.64.4c2.43-.46,4.68-1.82,7-2.73a27.42,27.42,0,0,1,5.22-1.82c10.77-1.82,21.38-.55,32,1.77a64.22,64.22,0,0,0,9.48,1.24c2.22.15,4-1.27,4.16-2.92.15-2-1.11-3.16-2.69-4.05a5.34,5.34,0,0,0-1.13-.37c-3.21-.89-6.42-1.76-9.62-2.67A85.8,85.8,0,0,1,1440.91,555c-3.33-2.16-6.9-4-10.33-6a7.28,7.28,0,0,1-1.32-1.3c5.1-2.36,8.27-6.18,10.76-10.63a11.67,11.67,0,0,1,6.06-5.51,30.87,30.87,0,0,1,6.17-1.64c6.15-.91,12.33-1.66,18.5-2.48,1.8-.24,4.08-2.05,4.43-3.62.44-2-1.09-2.83-2.31-3.83a15.21,15.21,0,0,0-1.59-1.18c-4.42-2.72-4.75-3.84-2.24-8.25a21.78,21.78,0,0,1,2-2.93c5.23-6.4,11.42-11.31,19.47-13.89,4.94-1.59,5.29-2.63,5.21-7.55a40.64,40.64,0,0,1,5.07-20.28c1.35-2.5,3.58-4.55,5.55-6.68,2.58-2.78,4.19-5.73,2.82-9.57-3.43-1.1-5.65.65-7.43,2.87a15.3,15.3,0,0,1-5.27,4.09c-5,2.53-9.86,5.17-14.79,7.77-2.36,1.25-4.22.81-5.29-1.59-2.42-5.4-1.91-11.18-1.69-16.87a20.93,20.93,0,0,1,1.4-5.32,19.58,19.58,0,0,1,1.78-4.3c1.69-2.7,3.81-5.15,5.36-7.92a24,24,0,0,1,9.61-9.58c3.7-2.06,7-4.77,10.58-7.11a3.71,3.71,0,0,0,1.58-4.18,13.58,13.58,0,0,0-1.21-3.35c-2.34-4.74-1.63-9.17,1-13.59,1.34-2.27,2.93-4.73,3.2-7.23.36-3.33,1.67-6.11,3-9a63.49,63.49,0,0,0,2.92-7c1.63-5.29,4.51-9.84,7.6-14.37a98.24,98.24,0,0,0,7.12-12.34,5.42,5.42,0,0,0-1.7-6.8c-2-1.13-4.3-.19-6.35,2.58-.56.75-1.09,1.52-1.61,2.29a59.21,59.21,0,0,1-4.47,6.6c-3,3.33-6.27,6.32-8.21,10.5a9.2,9.2,0,0,1-3.28,3.4c-4.22,2.81-7.61,6.57-11.49,9.74a39.59,39.59,0,0,0-8.79,10.76q-1.83,3.09-3.9,6a3.61,3.61,0,0,1-4.18,1.42c-3.1-.69-6.3-.9-9.45-1.39a6,6,0,0,1-3-.94,14.63,14.63,0,0,0-5.82-3.7,4.92,4.92,0,0,1-3.13-4.73,62.28,62.28,0,0,1,.1-8c.19-1.83.11-3.29-1.17-4.78a4.7,4.7,0,0,1-.8-3.19c.28-3.3.93-6.56,1.21-9.86a9.06,9.06,0,0,1,6.73-8.27,16.31,16.31,0,0,1,3.3,13.47,36.82,36.82,0,0,0-.45,5.57c-.11,2.42.58,4.52,2.95,5.64,1.82.85,3.81,0,6-2.15,2.45-2.4,5-4.7,7.64-6.92,2.26-1.9,4.3-3.87,5.46-6.72a18,18,0,0,1,3-4.66c3.92-4.68,7.93-9.26,11.93-13.86a11.12,11.12,0,0,1,2.57-2.47c3.42-1.95,7.29-3.28,9.25-7.13.1-.2.44-.28.67-.41,4.6-2.69,9.13-5.56,14.75-5.57a7.44,7.44,0,0,0,3.15-.38c1.48-.74,3.32-1.57,4-2.89,2.08-3.82,3.48-8,5.5-11.87a141.73,141.73,0,0,1,8-13.7c1.68-2.49,4.35-4.29,6.29-6.63,2.71-3.27,5.23-6.69,7.69-10.15,3.44-4.83,6.75-9.75,10.11-14.63a2.42,2.42,0,0,0,.18-.36C1572.27,254.35,1571.89,252.06,1570.39,251Z"/><path class="cls-1" d="M1227.5,563.38c2.08.26,4.25-.26,6.38-.32,1.58,0,3.35-.35,4.72.22,3.5,1.47,7.11.71,10.65,1a21.28,21.28,0,0,0,6.33-.72c1.89-.43,3.37-1.54,3.36-3.86,0-2.58-.9-4.08-3.39-4.68-6.81-1.64-9.22-9.42-6.48-15.8.22-.52,1-1.22,1.45-1.16,2.6.35,4.17-1.25,6-2.69,2.65-2.15,4-1.85,6.2.89,1.79,2.29,3.49,4.67,5.46,6.8,2.43,2.62,5.13,2.06,6.37-1.35a28.56,28.56,0,0,0,1-5.43c.26-1.7.4-3.42.73-5.11,1.17-6.1,4.85-10.84,8.64-15.49a3,3,0,0,1,3.42-1.35c3.27.87,3.36.78,5-2.07a13.79,13.79,0,0,1,8-6.65c3.73-1.22,7.48-2.95,9.64-6.51,1.72-2.83,2.89-6,4.47-8.88a8.59,8.59,0,0,1,2.53-2.8c2.14-1.53,4.41-2.87,6.66-4.25.76-.46,1.6-.78,2.35-1.14,1,1.79,1.67,3.59,2.88,4.88a8.14,8.14,0,0,1,2.57,5.63,60.7,60.7,0,0,1-.46,6.73c-.35,3.29.63,5.8,2.65,6.44s3.67-.61,5.55-3.62c2.61-4.15,4-9.05,7.56-12.63.32-.32.25-1,.44-1.5.62-1.58,1.18-3.19,1.94-4.7,1.07-2.13,2.2-4.24,3.47-6.25,1.76-2.82,1.24-5.53.13-8.39a13,13,0,0,1-1.24-5.37c.49-6.72.33-13.49,2.67-20a95.83,95.83,0,0,1,9.43-19.23,12.47,12.47,0,0,0,1.91-5.49,3.51,3.51,0,0,0-1.76-3.69,3.07,3.07,0,0,0-4,.44c-1.75,1.61-3.31,3.42-5,5.11-.59.61-1.28,1.59-1.92,1.59-2.08,0-3,1.51-4.24,2.65-2.9,2.64-4.36,6.27-6.39,9.48-2.61,4.15-4.75,8.6-7.1,12.92-.87,1.59-1.77,3.16-2.59,4.61-4.48-1-6.47-3.18-6.07-6.92a26.69,26.69,0,0,1,1.85-6c1.36-3.8-.36-6.73-4.3-7.16a19,19,0,0,0-2-.06,2.65,2.65,0,0,1-3-2.94c0-1.46.36-2.93.26-4.37-.24-3.5,1.22-7.73-3.71-9.21a7.89,7.89,0,0,1,1-6.68c1.74-2.73,2-5.68,2.2-8.75a66.77,66.77,0,0,1,4.25-20.59c2.34-5.79,5-11.43,6.45-17.54.45-1.89,1.65-3.58,2.45-5.39,1.23-2.8,2.53-5.57,3.56-8.43a3.63,3.63,0,0,0-1-4.38c-1.27-1-3.66-.78-5.18.6a29.85,29.85,0,0,0-3.45,3.83c-2.21,2.83-4.29,5.74-6.49,8.57-1.63,2.1-3.71,3.93-5,6.21-4.64,8.21-9.07,16.53-13.47,24.87-2.85,5.4-5.07,11.11-8.85,16-3.29,4.28-4.28,9-2,14.22a7.87,7.87,0,0,1,.66,3.09c0,5.18,0,10.37-.3,15.55-.31,5.85-2.75,10.21-9,11.49a8.9,8.9,0,0,0-1.86.74c-2.13,1-3.39,2.43-3.16,5,.21,2.38.25,4.78.26,7.18a61.26,61.26,0,0,1-.26,7.55c-.51,3.94-3.82,5.87-6.37,8.36-4.56,4.48-10.79,4.56-16.06,6.88-2.1-2.73-2-5.37-1.51-8,1-6,4.79-9.59,10.1-11.94a30.45,30.45,0,0,0,4.89-2.59,3,3,0,0,0,.86-4.24c-1.25-2.14-7.55-4.68-9.94-4.08-3.09.78-6.19,1.49-9.26,2.36-1.37.39-2.88.75-3.62-.54a4.55,4.55,0,0,1-.3-3.67,72.29,72.29,0,0,1,4.57-7.9c1.27-2,2.85-3.86,4-5.93,1.85-3.26,1.42-5.39-1.88-6.82a8,8,0,0,1-4.9-6.27c-.57-2.81-1.77-5.57-.14-8.54,1.9-3.48,3.17-7.35,5.33-10.65,2.37-3.64,3.65-8,7.2-10.88,1.74-1.4,1.68-3.58,1.67-5.55,0-2.78-2-4-4.64-3.07a8.48,8.48,0,0,0-2,1.29c-2.89,2.12-5.68,4.41-8.67,6.38-3.44,2.25-7.08,4.19-10.59,6.35-1.47.92-2.87,1.83-5,1.2.2-3.23-1.43-5.56-3.46-7.8a29,29,0,0,1-5.87-10.37c-.63-1.9-.84-3.79.95-5.08a8.73,8.73,0,0,0,3.76-6.49c2.14-.65,4.26-.87,5.9-1.88a27.66,27.66,0,0,1,10.22-4.28c3.52-3.69,8.26-2.85,12.63-3.43,1.84-.25,3.68-1,5.49-.86A29.66,29.66,0,0,0,1272,358c.71-.25,1.67-.63,1.94-1.21,1.87-4.07,6-5.94,8.77-9.14a48.52,48.52,0,0,1,6.67-6.22c1.86-1.46,4.21-2.29,6.06-3.75,3.19-2.51,5.82-5.7,9.73-7.31,1.42-.59,1.42-2.14.92-3.52a4.28,4.28,0,0,0-3.77-3.11,7.64,7.64,0,0,0-3.13.48c-3.87,1.44-7.77,2.82-11.52,4.52-5.79,2.64-11.48,5.18-18.11,5.23-.65,0-1.29,0-1.94.06a25.86,25.86,0,0,0-9.3,2.24,16.19,16.19,0,0,1-10.93.65c-4.84-1.17-5.51-2.79-2.47-6.72.65-.84,1.45-1.56,2.14-2.36a29.71,29.71,0,0,0,2.77-3.39c1-1.56.66-4.16-.65-5.18-1.52-1.18-3-1-4.7.14a115.41,115.41,0,0,1-10.48,5.74c-5.68,2.87-11.68,5.22-17.06,8.56-4.5,2.81-8.33,1.82-12.39-.17a4.51,4.51,0,0,1-2.62-4.89c.45-5,.62-10.1,1-15.14a24.39,24.39,0,0,1,.84-4.3c.68-2.56,1.57-5.08,2.14-7.66.77-3.47-1.23-5.51-4.69-4.89-1.65.3-3.27.8-4.67,1.16-2.24-2.26-2.35-4.5-1.94-7,.45-2.74.37-5.57.85-8.31.72-4,1.66-8.05,2.67-12a3.86,3.86,0,0,1,1.84-1.93,2.64,2.64,0,0,0,1.29-3.07,17.11,17.11,0,0,0-1-3.42,39.29,39.29,0,0,1-3.11-15.52,9.66,9.66,0,0,1,1.6-5.61c1.39-2.08,2.53-4.32,3.73-6.53,1-1.86,2.3-2.34,3.74-.86a30.85,30.85,0,0,1,4.87,6.24c.89,1.57,2.81,3.63,0,5.45-.13.08-.12.51,0,.75,1.29,4.85.29,9.78.42,14.67.08,3-1,6-1.46,9-.75,4.48-3,8.95-.08,13.44,4.16.88,5.34.33,7.56-3.16,1.06-1.67,2.35-3.19,3.51-4.8s2.37-3.14,3.37-4.82c2-3.39,2.35-7.72,5.72-10.39a1.44,1.44,0,0,0,.5-1c.18-5.32,2.42-9.94,5-14.39,1.45-2.46,2.15-4.73.62-7.44-.91-1.6-1.13-3.59-2.06-5.16-2-3.34-1.28-6.35.57-9.38a6,6,0,0,1,8.26-2.44c1.18.6,2.19,1.54,3.38,2.11,2.29,1.09,4.06.4,5.16-1.93.57-1.2,1-2.45,1.48-3.7.54-1.5.71-3.24,1.59-4.48,1.53-2.16,3.69-3.87,5.18-6a59.17,59.17,0,0,0,3.53-6.92l.91.05a34.17,34.17,0,0,1,1.6,4c.72,2.67.9,5.53,2,8.05a11.42,11.42,0,0,1-.75,11c-1.46,2.48-2.9,5.28-3.2,8.06-.53,4.92-3,8-7.07,10.26a12.71,12.71,0,0,0-3.3,2.82c-1.39,1.64-1.24,3.07.42,4.5a11.38,11.38,0,0,0,3,1.79c7.59,3.23,14.79,6.84,16.21,16.22a25.55,25.55,0,0,1,.33,4.28,31.76,31.76,0,0,1-.51,5.15c-1.13,6,.34,12.31-2.8,18a7.22,7.22,0,0,0-.28,2.75,25.93,25.93,0,0,1-.35,4c-1.21,5-2.63,10-3.8,15-.88,3.75-1.56,7.55-2.17,11.35a4,4,0,0,0,2,4.45,4.26,4.26,0,0,0,2,.55,3.89,3.89,0,0,0,2.77-1.22,71.88,71.88,0,0,0,7.2-7.93,46.56,46.56,0,0,0,5.37-9.16c2-4.64,6.27-8.32,6-13.95a3.67,3.67,0,0,1,.71-1.85c2.85-4.78,5.62-9.62,8.65-14.28a14.94,14.94,0,0,0,2.79-8.54c0-4.9-.19-9.82,1.78-14.55a10.8,10.8,0,0,0,.74-5.47c-.71-4.64,0-8.64,3.46-12.07a9.44,9.44,0,0,0,2-3.87c2.51-8.19,8.09-14.6,12.56-21.63a11.11,11.11,0,0,0,2.09-5.34c.33-4.51.32-9.09,1.24-13.48a39.08,39.08,0,0,0,1.21-9.77c-.13-3.21-.23-6.35,1-9.43a10.51,10.51,0,0,0,.26-3.57c0-1.51-.1-3-1.86-3.58a4.33,4.33,0,0,0-4.65,1.5,11.56,11.56,0,0,0-1.29,2.47c-2.27,4.12-5.09,8-5.55,12.92a6.2,6.2,0,0,1-1.32,2.43c-2.41,3.67-4.81,7.33-7.31,10.93-.36.54-1.2.75-2,1.23a6.8,6.8,0,0,1-.33-1.89c.75-3.9,1.33-7.87,2.43-11.68s.92-7-2.11-9.82a55.11,55.11,0,0,1-5-5.63,3.73,3.73,0,0,1-.87-2.5,59.2,59.2,0,0,1,1.85-10.14c1.54-4.79,3.65-9.4,5.5-14.1a6.52,6.52,0,0,0,.55-1.91c.13-1.88.21-3.83-1.78-4.91-1.56-.85-3.7-.06-5.31,1.71-1.95,2.14-3.91,4.28-6,6.31-.46.46-1.73.88-2,.63a3.45,3.45,0,0,1-.91-2.27,8.81,8.81,0,0,1,.73-2.25c1.11-4.09,2.67-8.13,3.17-12.29a22.73,22.73,0,0,1,5.22-12.23c1.32-1.59,2.1-3.13,1.51-5s.18-3.3,1.26-4.76c2.67-3.6,5.22-7.29,7.87-10.91,1.25-1.71,2.59-3.36,3.92-5,2.6-3.17,5.44-6.17,7.77-9.53,2-2.86,3.91-5.58,7.11-7.21a49,49,0,0,0,4.47-2.88c-1.5-4.23-2.57-5.08-5.38-4a44,44,0,0,0-8.29,3.85c-5.92,3.82-11.66,7.91-17.43,12-3.87,2.72-7,6-8.42,10.73a8.08,8.08,0,0,1-4.82,5.48,9.45,9.45,0,0,0-3.3,2.75c-3.46,4.19-6.8,8.47-10.17,12.73-2.47,3.11-5.28,6-7.3,9.42-3,4.93-5.75,9.89-10.33,13.54a7.47,7.47,0,0,0-2.8,7.45c.31,2.11.49,4.23.72,6.35a10.24,10.24,0,0,1-4,9.5,41.86,41.86,0,0,0-4,3.88c-2.84,3.13-5.43,6.52-8.48,9.43a11.46,11.46,0,0,1-5.6,2.69c-3.57.66-7.26.72-11,1-1.91-2.77-1.45-5.94-1.1-9.13.37-3.44-1.35-5.21-4.78-5.31-2.38-.06-3.12,1.76-4.07,3.3-1.1,1.81-1.88,3.84-3.11,5.55-2.32,3.23-4.78,6.36-7.32,9.41-1.82,2.2-3.39,4.75-6.72,6-1.12-1.44-2.61-2.72-3.24-4.33a6.89,6.89,0,0,0-4.13-4.48c-1.3-.49-1.67-1.38-1.55-2.83.66-8.4,2.66-16.52,5-24.58a36.68,36.68,0,0,0,1.21-6.23,4,4,0,0,0-5.34-4.26,7.42,7.42,0,0,0-3.18,2.76c-2.79,4.21-5.23,8.66-8.14,12.77-1.85,2.61-3.88,5-4.38,8.3a8.48,8.48,0,0,1-1.65,3.58,80.78,80.78,0,0,1-5.73,7.15c-3.1,3.39-4.3,6.92-1.92,11.24,1.11,2,1.15,4.24-.75,5.83a6.69,6.69,0,0,0-2.64,6.26c.05.44-.37.94-.51,1.27-2.92,1.06-5.58,2.42-8.39,3-4.57.89-7.45,3.84-10.18,7.16-2.11,2.56-4.31,5.06-6.27,7.72-2.35,3.2-5.07,6.3-6.55,9.89-1.06,2.58-1.89,5.14-3.71,7.3a32.92,32.92,0,0,0-2.32,3.25,5.65,5.65,0,0,0,.3,6.3c1.55,1.7,3.37,1.32,5.15.55a12.69,12.69,0,0,0,2.68-1.68c5-3.92,10.06-7.82,15-11.84,2.79-2.27,5.85-2.44,9-1.51a16.4,16.4,0,0,1,8.34,5.59c-3.17,4.71-3.09,8.14-.23,11.89,1.17,1.52,2.53,3.37,2.63,5.14a10.3,10.3,0,0,0,4.37,8c2.13,1.65,2.29,2.67.74,4.95-1,1.43-2,2.85-2.82,4.34-1.47,2.52-2.54,3-5.15,1.79a33.31,33.31,0,0,1-3-1.89,26.62,26.62,0,0,0-18.45-3.08,3.75,3.75,0,0,0-3,5.09,10.9,10.9,0,0,0,2.21,3.65c3.83,4.39,8.5,8.09,11.35,13.28,2.6,4.74,5.51,9.42,4.06,15.34a25.79,25.79,0,0,0-.44,6.75c0,1.07.42,2.68,1.17,3.09,3.29,1.79,4.66,5,6.61,7.85a5.11,5.11,0,0,1,.19,6.28c-2.4,3.67-4.65,7.44-7.1,11.08a14.21,14.21,0,0,1-2.8,2.41c-.91-1.13-1.58-1.91-2.19-2.74-1.11-1.49-2.26-3-3.23-4.54-1.28-2.07-3.14-2.28-5.23-1.86s-2,2.3-2.49,3.73a23.07,23.07,0,0,0-.63,4.33c-.47,4.09-.46,8.31-1.51,12.24-.92,3.45-1,6.56.49,9.68a13.32,13.32,0,0,1,.64,9.34,20.61,20.61,0,0,0-.23,5.1c0,1.06.35,2.11.34,3.16-.1,7,.2,14.13-.53,21.11-.75,7.2,2.15,13.58,3.2,20.36a5.2,5.2,0,0,0,.88,1.78c1.49,2.33,4.43,2.37,5.8-.07a13,13,0,0,0,1-3.76c.47-2.21.57-4.54,1.35-6.62,2.45-6.56,5.11-13.05,7.75-19.54,1.4-3.42,2.77-6.86,4.45-10.14s2.48-3.39,5.66-2.43a32.45,32.45,0,0,1,3.31,1.36c1.93.83,3.91,1.56,5.74,2.56,1.59.86,3.59,1.72,4.36,3.14a19.2,19.2,0,0,1,2,7.19c.25,2.48-.23,5-.31,7.56-.13,3.56,1.59,5.11,4.85,4a4.52,4.52,0,0,1,5,1.2,28.82,28.82,0,0,1,7,11,7.73,7.73,0,0,1-.75,6.83,39.79,39.79,0,0,0-3.9,8.7,29.51,29.51,0,0,1-4.32,9.34c-2,2.93-4.92,5.29-5.45,9.09-3.51,2.73-2.72,7-3.69,10.62-.82,3,1.2,4.77,4.35,4.38s5.36-2.09,7.31-4.44c1.68-2,3.56-3.84,5.66-6.09,2.14,2.41,4.12,2.71,6.64,1.26,2.13-1.23,3.53-.39,4.86,1.9,2.74,4.69,1.06,9.6.68,14.43-.06.65-.95,1.23-1.44,1.85a40.18,40.18,0,0,0-3.88,5c-2.3,4.17-3.65,8.33-1.28,13.26,1.5,3.14,1.92,6.9,2.3,10.44.42,3.94-.16,8,.41,11.89.85,5.8-1.8,10.44-4.65,14.77a25.13,25.13,0,0,1-8,7.05c-4.49,2.74-6.24,6.5-6.49,11.53a41.26,41.26,0,0,1-1.51,9.84c-4.42,14.62-9.1,29.17-13.63,43.77a25.82,25.82,0,0,0-1,5.45c-.26,3.17-.36,6.36-.39,9.54a18.37,18.37,0,0,0,.47,4.31,4.42,4.42,0,0,0,4.08,3.78c2.2.15,2.64-1.87,3.37-3.4,1.35-2.85,2.39-5.91,4.12-8.51,3.44-5.18,5-11.38,9.31-16.1a24.1,24.1,0,0,0,4-6.3,103.29,103.29,0,0,1,10.89-18.39,92.53,92.53,0,0,1,8.89-10.2C1218.71,565.11,1222.45,562.75,1227.5,563.38Z"/><path class="cls-1" d="M1170.59,588.94c-2.26-4.64-1.24-9.37-.88-14.12.18-2.49.26-5,.56-7.49a86,86,0,0,1,1.43-8.59c.16-.73,1.17-1.33,1.89-1.85a22.47,22.47,0,0,1,2.36-1.3,33.19,33.19,0,0,1,1.85-8.62c.46-1.38,1.29-2.63,1.78-4a36.92,36.92,0,0,1,8.72-14.14c4.43-4.43,6.4-9.73,4.47-16-.28-.9-.51-1.8-.71-2.71a8.27,8.27,0,0,1-.32-2.35c.57-6.74,1.15-13.48,1.87-20.21.22-2.07,0-3.7-2.06-4.68s-3.18-.75-5.14,1.48a5.77,5.77,0,0,0-1.68,2.62c-.58,5-3.55,8.84-6,12.93-1.32,2.21-2.7,4.47-5.56,5.65-.73-4.6-1.45-8.86-2.09-13.14a48.41,48.41,0,0,1-.95-8.26c.13-5.17.61-10.34,1.13-15.48.24-2.36,1-4.66,1.37-7,1-6.7,1.67-13.46,2.89-20.12a124.24,124.24,0,0,1,3.57-13c.91-3.06,2.12-6,3-9.09a3.44,3.44,0,0,0-1.45-4.2c-1.18-.7-3.83.2-4.49,1.62-2.35,5.11-5.1,9.92-9.18,13.88a1.15,1.15,0,0,0-.18.35c-3.9,7.37-9.47,13.4-15.22,19.33-3,3.06-5.23,6.45-3.44,11.1a9.76,9.76,0,0,1,.25,3.17c.07,4.8.33,9.6.1,14.38a144.27,144.27,0,0,1-1.61,16.62c-.57,3.37-.92,6.44.46,9.71a13.71,13.71,0,0,1,.83,8.18c-4.82-1.57-7.74-4.85-10.7-8.06-2.25-2.44-4.66-3-7.41-1.51-1.71.92-2.31,3.13-1.58,6,1.09,4.25,2.12,8.52,3.3,12.75,1.48,5.3,3.19,10.31,8.51,13.39,3.33,1.93,2.45,7.92-1,10.21-2.38,1.56-4.67,3.25-7.57,5.29a3.13,3.13,0,0,1-1.51-.25c-3.34-1.6-6.68-3.23-9.93-5a3.45,3.45,0,0,1-1.6-3.82c.46-2.75.81-5.53,1.48-8.23.77-3.08,2-6,2.68-9.15a4.73,4.73,0,0,0-1.07-3.53c-1.07-1.23-2.75-1-4.06-.16a8.7,8.7,0,0,0-3,2.6c-2.63,4.52-6.3,8.18-9.63,12.13a19.45,19.45,0,0,0-1.6,2.74c-3.31,5.49-5.39,11.52-7.6,17.48-1.53,4.1-2.77,8.31-4.14,12.47a24.43,24.43,0,0,1-1.12,3.42c-1.56,3.15-3.78,5.59-7.48,6.62a17.32,17.32,0,0,1,1.7-12,16.68,16.68,0,0,0,1.2-3.72c1.28-4.84,2.41-9.73,3.85-14.53a11.68,11.68,0,0,1,2.66-4.35,4.7,4.7,0,0,0,1.4-4,12.1,12.1,0,0,1,2.32-8.27,32.65,32.65,0,0,0,3.56-6.22c2.18-5.63,6.43-9.32,11.08-12.75,4-2.92,4.39-4.26,2.83-8.78a17,17,0,0,1,.58-13.55c3.19-6.57,6.41-13.13,9.49-19.76a14.32,14.32,0,0,0,1.25-5c.16-2.55-1.34-3.61-3.81-3a9.3,9.3,0,0,0-5.83,3.9,21.6,21.6,0,0,1-2.61,3c-3,3-6,6-9.08,9-1.4,1.33-3,2.46-5.23,4.26-.35-2.16-.84-3.52-.72-4.81.24-2.51.8-5,1.25-7.49,1-5.62,2.27-11.22,3-16.88,1.14-9,4.65-16.63,11.77-22.25a12.34,12.34,0,0,0,5-10.28c.09-5.93,1.26-11.57,4.82-16.56,1.69-2.38,1.21-4.48-.8-5.95-1.72-1.26-3.47-.8-5.63,1.07a18.63,18.63,0,0,1-4.88,3.29c-2.33,1-3.3,0-2.91-2.46.31-2,1.2-3.93,1.09-5.85-.36-6.12.94-11.84,2.86-17.59s3.38-11.95,5-17.95a27.52,27.52,0,0,1,6.15-11.94c4.44-4.83,5.42-10.29,3.93-16.65-.74-3.14-.41-6.6-.14-9.87a29,29,0,0,1,1.68-6.14c2.13-6.79,3.33-13.91,7.46-20,1.47-2.16,1-4.53-.72-5.66s-3.95-.92-5.62,1.22c-1.38,1.75-2.91,3.68-3.4,5.76a41.86,41.86,0,0,1-6,13.76c-2.15,3.22-4.69,6.17-7.23,9.48-1.14-3.7-1.25-3.73-.51-6.26,1.27-4.32,2.88-8.56,4-12.92.8-3.18,1-6.51,1.52-9.78.66-4.53-3.82-5.7-7.12-4.15a11.1,11.1,0,0,0-2.44,2,5,5,0,0,1-5.28,1.22,36.58,36.58,0,0,1,0-5.93c1.33-7.87,2.84-15.71,4.27-23.57.65-3.54.76-6.9-2.7-9.3a3.65,3.65,0,0,1-1.53-2.25c-.37-4.76-1.15-9.61-.59-14.28a20.61,20.61,0,0,0-1.13-9.56c-1.2-3.38-1.31-4.27,1.36-6.51,2.23-1.88,4.67-3.52,7-5.3,3.38-2.6,3.66-3.82,1.23-7.28a9.7,9.7,0,0,1-1.56-6.44c.14-3.17.19-6.34.3-9.52,0-.91.12-1.83.21-2.75.34-3.43.77-6.85,1-10.28.43-5.56.77-11.13,1.13-16.7.22-3.45.94-7,.51-10.34a86,86,0,0,0-5.42-21.94c-1-2.43-3.38-4-5.51-3.39a4.21,4.21,0,0,0-2.7,5.16c1,4.41-.41,8.71-.35,13.07a11.19,11.19,0,0,1-1.39,4.92c-3.29,6.49-3.47,13.85-6,20.54a.91.91,0,0,0-.06.4c.48,6.56-2.87,12.06-5,17.88-.27.72-1.09,1.22-1.91,2.11a11.58,11.58,0,0,1-.66-7.06c.25-1.71.46-3.42.58-5.15.28-4.11-1.39-6.85-5.47-8.15-1.44-.47-3.23-1.29-3.89-2.48a63.63,63.63,0,0,1-5.69-12.22,81.63,81.63,0,0,1-2.42-14.07,21.85,21.85,0,0,1,.43-6.64c.61-3.15.33-4.27-2-6.13-2.85-2.33-5.64-4.72-8.33-7.22a5.18,5.18,0,0,1-1-2.51c-.7-2.86-2.21-3.91-5.25-3.8a3.45,3.45,0,0,1-2.49-.72c-2.28-2.74-5.46-4.56-7.15-8-.92-1.86-3-3.36-4.84-4.47-2.28-1.36-4.14-2.74-4.87-5.45a6.17,6.17,0,0,0-2-2.85c-4.47-3.76-9-7.37-13.53-11.11a6.9,6.9,0,0,1-2.16-2.78c-1.51-4.52-4.68-7.27-8.92-9a13.85,13.85,0,0,1-3.15-1.7c-4.08-3.16-8-6.49-12.16-9.6a76.85,76.85,0,0,0-8.24-5.52c-3.67-2.09-7.56-3.8-11.27-5.81C969.8,44.93,968,44,967,42.55a16.53,16.53,0,0,0-6.12-5.29c-3.79-2-4.23-2.1-6.34,2.13,1.13,1.3,2.37,2.67,3.55,4.09a15.18,15.18,0,0,1,2.11,2.86c1.18,2.48,2.06,5.11,3.3,7.56a8.7,8.7,0,0,0,2.47,2.48c5.16,4.12,10.38,8.17,15.52,12.32a16.45,16.45,0,0,1,2.27,2.75c.66.83,1.28,1.68,2,2.48,3.69,4.34,7.47,8.62,11.09,13,3.27,4,6.3,8.12,9.58,12.07a36.78,36.78,0,0,0,4.35,4,12,12,0,0,1,3.57,4.07,44.8,44.8,0,0,0,6.23,10,34.48,34.48,0,0,1,5.22,9.25,27.43,27.43,0,0,0,1.53,2.75c2.22,3.85,3.7,7.8,1.81,12.93a45.22,45.22,0,0,1-4.49-2.88c-2.22-1.86-4.22-4-6.43-5.87s-4.65-3.49-6.83-5.4c-3.27-2.87-6.41-5.9-9.59-8.87-1.14-1.07-2.3-1.69-4-1-2.89,1.13-4,3.25-2.27,6a43.41,43.41,0,0,1,5.59,13.47,2.83,2.83,0,0,0,.31.74,93,93,0,0,1,7.13,15.05,28.47,28.47,0,0,1,1.72,8.83c.09,5,.33,10.09.58,15.12a6.43,6.43,0,0,1-1.36,5l-3.1-.45a42.5,42.5,0,0,0-5.8-.78c-3.7,0-6.14-1.87-6.26-5.59-.18-5.65-1.61-11.25-.54-17a13.25,13.25,0,0,0-.52-5.53c-.74-2.83-3-3.64-5.58-2.17A7.16,7.16,0,0,0,984,156.1a23.82,23.82,0,0,1-1.05,5.44c-1.89,4.69-4,9.3-6.12,13.88a12.86,12.86,0,0,1-2.53,3.52c-3.2,3.23-4.72,7-4,11.54.18,1.07.25,2.15.41,3.66-1.43-1.13-2.31-1.92-3.29-2.57-3.78-2.55-4.94-5.33-4-9.77,1.1-5.33,1.43-10.51-1.94-15.33-.78-1.12-.86-2.75-1.19-4.15-.6-2.58-1.14-5.17-1.73-7.75q-.62-2.72-1.31-5.42c-.56-2.17-1.09-4.36-1.75-6.51a59.58,59.58,0,0,0-2.28-6.37,26.73,26.73,0,0,0-2.74-4.79,2,2,0,0,0-3.18-.34c-1.65,1.68-3.24,3.38-2.69,6.24a34.59,34.59,0,0,1,.38,7.88,102.16,102.16,0,0,1-1,10.32,8.18,8.18,0,0,1-1.53,4c-1.91,2.2-1.85,4.4-1.32,7.06.92,4.59,1.15,9.32-.44,13.8-1.91,5.37-4.14,10.62-6.33,15.88a8.89,8.89,0,0,0,0,7.35c1.32,2.9,3.17,5.57,4.39,8.5,1.1,2.65,2.22,5.51,2.29,8.3a28,28,0,0,0,1.31,8.53c1,2.85,1.76,5.91-.79,8.65a4,4,0,0,0-.72,3c.62,4.78-.64,9.19-2,13.67-1.75,5.54-3.16,11.18-4.77,16.95,3,2.19,4.23,5.27,4.79,8.83a20,20,0,0,0,1.83,5.27c2.82,6,2.53,11.64-1.23,17.36-3.34,5.09-5.89,10.69-9,15.95-1.75,3-1.05,5.66.48,8.24a42,42,0,0,1,5.53,18.92c.17,2.35.2,4.9,1.15,7a6.26,6.26,0,0,1-.22,6.28c-3.94.33-5.75-.44-6.85-3.87-1-3.22-2.85-6.21-2.49-9.93.28-2.8-2.21-4.22-4.9-3.31a3.22,3.22,0,0,0-2.46,3.62c.11,1.19.19,2.39.31,3.58.49,4.63,1,9.26,1.49,13.88s1.51,9.17,1.51,13.75c0,4,.94,7,4.49,9a11,11,0,0,1,2.53,2.39c2,2.31.49,4.49-.34,6.68-1.29,3.39-1.23,4.24,1.54,6.57,2.09,1.75,2.57,3.9,2.53,6.4-.11,5.58-.31,11.16-.24,16.74a16.86,16.86,0,0,1-3.55,10.74c-2.18,2.87-4.17,5.85-5,9.44a40.56,40.56,0,0,1-3.15,9.33c-.94,1.88-.28,4.63-.12,7a2.37,2.37,0,0,0,1.31,1.77c3.91,1,4.87,4.19,5.87,7.4,1.5,4.79,3,9.58,4.36,14.43a6.84,6.84,0,0,1-.38,3.46c-1.27,4.32-2.73,8.58-4,12.9-.95,3.32-1.68,6.69-2.5,10-.54,2.21-1.07,4.41-1.6,6.62a54.08,54.08,0,0,1-7.12-11.87c-1.51-3.75-2.81-7.77-.93-12a6.85,6.85,0,0,0,.2-4.25,9.37,9.37,0,0,1,.27-6.6,4.26,4.26,0,0,0,.31-2.31,64.53,64.53,0,0,1-.94-11c0-7-.54-14.09-1-21.13-.1-1.68-.63-3.33-.87-5a13,13,0,0,1-.22-3.51c.58-4.21,1.2-8.43,2-12.61.87-4.55,1.39-9.21,4.3-13.15.72-1,.73-2.51.92-3.8.51-3.66-1.15-6.84-2.9-9.71-4.67-7.69-5.68-15.87-4.36-24.56a26.28,26.28,0,0,0,0-4.78c-.06-2.11-.57-4.27-.26-6.31,1.56-10.36,1.46-21,4.74-31.05a11.79,11.79,0,0,0,.23-1.58c1-5.49,1.89-11,2.89-16.47a43.16,43.16,0,0,1,1.6-7.37,88.94,88.94,0,0,0,5.7-26.41,38.64,38.64,0,0,1,1.36-7c.34-1.39.71-2.72-.41-3.78a1.94,1.94,0,0,0-.26-.23,4,4,0,0,0-4.51-.46,7.15,7.15,0,0,0-3.78,4.42,65.53,65.53,0,0,1-2.38,6.35c-.29.67-1.09,1.11-2.11,2.1-.28-2.73-.44-4.7-.69-6.65-.59-4.48-1.42-8.94-1.8-13.44a96.55,96.55,0,0,1,.22-19.89c.55-4.48,2.53-8.22,4.63-12.67,2,2.25,3.6,4,5.19,5.76,1.13,1.26,2.46,2.08,4.21,1.56a3.62,3.62,0,0,0,2.56-3.68,14.48,14.48,0,0,0-.34-3.53c-.6-3-1.35-5.93-1.94-8.92s-1.15-6.24-1.67-9.37A6,6,0,0,0,926,209a26.19,26.19,0,0,1-8.54-13.12c-1.63-5.32.42-10.2,2.23-15.08,1.61-4.35,4-8.62,4.55-13.1.79-6.55.24-13.26.23-19.9,0-4.11-.56-8.29,0-12.31.84-5.9,2.23-11.72,2.22-17.74a8.32,8.32,0,0,1,.61-2.71c1.3-3.73.14-7.4-.46-11a3.86,3.86,0,0,0-2.58-2.58c-1.2-.12-2.62.83-3.76,1.59a3.82,3.82,0,0,0-1.08,2.09c-1.61,5.87-3.17,11.76-4.77,17.63-.21.77-.6,1.48-.82,2.25a29.68,29.68,0,0,0-1.47,5.68c-.26,3.4-2.08,5.79-4.14,8.27-2.31-1.93-3.37-4-3.08-6.81a10.9,10.9,0,0,0-.27-3.55c-.72-3.07-1.74-6.09-2.35-9.18a23,23,0,0,1,.83-12.21c1.17-3.32,0-6.06-3.24-7.86-5.49-3-10-6.94-12.23-13a10.35,10.35,0,0,0-1.6-2.26,33.16,33.16,0,0,1-3-4.14A7.36,7.36,0,0,0,879,76.06c-5.58-1.77-8.44-6.21-10.79-11.06-2.93-6-16.89-12.17-13.76-6.81,2.7,4.63,5.59,9.15,6.9,14.64,1.65,7,4.57,13.59,6.75,20.43,1.25,3.91,1.79,8.08,3.29,11.87,1.44,3.62,4.57,6.57,4,11,0,.26.48.59.71.9,2.13,2.92,2,6,.35,9a78.1,78.1,0,0,1-5,7.61c-1.18,1.65-1.73,3.2-.71,5.16.92,1.76,1.57,3.65,2.39,5.46,1.6,3.51,3.34,7,3.57,10.91.24,4.21,1,8.49-1.9,12.25-1.29,1.7-.56,3.34.74,4.66.86.88,1.59,1.59,1.54,3s.59,2.81.55,4.21a18.54,18.54,0,0,1-.79,5.41,16.14,16.14,0,0,1-5.74,7.41c-2.87,2.27-5.19,4.93-3.64,9.21.45,1.25,0,2.91-.34,4.32-.79,3.76-2,7.45-2.51,11.25-.39,2.8-1.48,4.75-4,5.93-6.12,2.89-12,6.2-18.88,7.32-3.4.56-6.52,1.87-8.32,5.44A56.24,56.24,0,0,1,821,251.38c-.88.81-1.77,1.62-2.59,2.49-2.28,2.39-1.8,5.38,1.08,6.92,2.69,1.44,5,1,7.25-1.06a32.56,32.56,0,0,1,16.41-8.53c3.6-.7,5.58.05,6.54,3.67a55.88,55.88,0,0,1,1.08,7.09c.71,5.36.35,5.88-4.13,8.6-2.88,1.75-5.66,4.05-5.89,7.59-.33,5.18-3.75,9-5.22,13.67-.27.87-2.09,2.1-2.63,1.87a4.68,4.68,0,0,1-2.29-2.86c-.41-1.63.17-3.55-.35-5.12a8.61,8.61,0,0,0-3-3.9c-.53-.39-2.43.29-3.09,1a10.35,10.35,0,0,0-2.65,4.69,56,56,0,0,1-1.83,7.62c-2.92,9.63-3.47,19.65-4.09,29.56A28.43,28.43,0,0,1,810,340.17c-3.83,5.21-7.05,5.38-12.41,2.32-.91-.53-1.63-1.37-2.53-1.92-3.66-2.24-4.28-3.89-3.17-8.15.71-2.74.74-5.13-1.18-7.81-3.09-4.33-5.33-9.2-4.13-14.94.29-1.36-.18-2.9-.34-4.35a16.48,16.48,0,0,1-.44-3.14c.53-6.07,1.18-12.13,1.75-18.2.31-3.16.66-6.32.77-9.49.05-1.49-.52-3-2.36-3.2s-3.55-.38-4.63,1.47c-.54.91-1.32,1.91-1.32,2.87,0,3.74-2.2,6.52-4,9.42-2.15,3.49-4.67,6.75-7,10.13-1.09,1.58-2.82,2.11-4.16,1.1-2.77-2.09-6-3.92-6.39-8-.26-2.78-1.36-5.08-4.41-6a5.87,5.87,0,0,1-2.6-1.74c-3.89-4.52-8.33-8.62-10.88-14.18a9.34,9.34,0,0,0-2.06-2.91c-1.8-1.67-2.23-3.84-2.64-6.08-.66-3.52-1.36-7-2.13-10.54-.57-2.57-1.75-5.1-1.82-7.66-.14-5.29.4-10.58.45-15.87a210.23,210.23,0,0,1,2-27.8,20.35,20.35,0,0,0,.29-5.55c-.39-2.86-2.52-3.67-5-2.17s-3.45,3.9-4.15,6.56a57,57,0,0,1-2.3,7.13c-1.31,3.19-2.78,6.31-4.37,9.37-1.5,2.89-3.24,5.66-5.35,9.3-.56-4.14-1.08-7.36-1.41-10.61-.41-4.19-1.4-8.1-4.07-11.5a6.77,6.77,0,0,1-1.19-6.07c1.07-4,.66-7.89-.1-11.86a34.52,34.52,0,0,1,2.64-21.67c1.17-2.49.51-4.65-.9-6.73a18.24,18.24,0,0,1-1.88-2.51c-3-6.77-4.06-14-4.41-21.28-.39-7.94.31-15.94.54-23.91,0-1.06.06-2.13.11-3.19.25-4.64.42-9.29.78-13.92.6-8,3.07-15.61,4.94-23.35a11.83,11.83,0,0,0,0-5.06c-.57-2.61-3.28-3.24-5.2-1.32a7,7,0,0,0-1.44,2.34c-1.76,4.58-3.44,9.18-5.17,13.77a90.09,90.09,0,0,1-3.33,8.55c-3.21,6.42-6.69,12.71-10,19.08a22,22,0,0,0-2.31,10.34c0,5.7.3,11.69-1.28,17-2.12,7.19-3,14.57-4.78,21.77-.5,2-.76,3.88-3.18,4.58-.77.22-1.41,1.17-1.94,1.9-3.87,5.33-2.92,11.6,1.5,17.7,1.46,2,2.26,3.77,1.42,6.63-3.22-1.71-6.64-3-8.56-5.82a63,63,0,0,1-6-11.68c-2.08-5-3.8-10.19-5.5-15.35A148.78,148.78,0,0,1,648,132,20.79,20.79,0,0,0,641.48,120c-4.21,1.07-5.83,3.56-4.89,7.49.58,2.44,2,5,1.69,7.28-.94,6.09.13,12,.85,17.89.74,6.06,2.51,12,3,18.08A98.3,98.3,0,0,0,646.9,193a17.52,17.52,0,0,0,2.62,4.82c3.24,4.53,6.83,8.83,9.89,13.47s5.47,9.31,5.32,15.18c-.08,3.08,1,6.27,2,9.27C668,239.46,670,243,671.1,246.8c1.65,5.46,2.72,11.1,4.27,16.6a40.48,40.48,0,0,1,1.14,18.49,10.24,10.24,0,0,0-.1,2c.07,5.12-.57,10.05-3,14.7-1.24,2.39-.39,4.33,1.93,5.75,5.94,3.63,8.06,8.39,6.42,14.83a5.21,5.21,0,0,1-1.79,2.54c-1.81,1.38-11-.16-12.38-1.95a1.79,1.79,0,0,1-.22-.34c-2-4.05-3.91-8.12-5.92-12.14s-3.92-7.82-6-11.63a3.38,3.38,0,0,0-4.49-1.54,4.35,4.35,0,0,0-2.73,4.83,80.56,80.56,0,0,0,2,8.45c.48,1.53.66,2.75-.33,4.1-1.1,1.51-.72,3,.32,4.41.77,1.07,1.84,2.21,2,3.4.56,5.5,2.64,10.93.8,16.56a9.49,9.49,0,0,0-.23,2.78c0,1.74.79,2.85,2.6,2.81,3-.06,4.87,1.66,6.57,3.87,2.26,2.95,4.24,6.37,7.13,8.53,5.23,3.89,6.46,9.52,8,15.11a12.38,12.38,0,0,1-.22,7.44c-.76,2.25-1,4.66-1.58,7-.76,3-2,5.53-5.65,5.72-2.31.11-3.83,1.71-5.25,3.35-1.07,1.23-1.54,2.25-1.38,3.17a3.77,3.77,0,0,0,2,2.34c3.36,2.07,5.25,6,9.38,7.1.42.11.8.72,1,1.18,1.09,2.23,2.13,4.49,3.17,6.74,1.67,3.61,3,7.41,5.07,10.8,4.56,7.52,3.74,14.75-.51,22.28.61,1,1.33,2.06,2,3.18a10.84,10.84,0,0,1-2,14.32c-.4.36-.86.65-1.23,1-2.8,2.87-3.26,5.49-1.23,9a68.61,68.61,0,0,1,8,24.51c.88,6,.79,12.17.9,18.27.09,4.92-.4,9.85-.22,14.75a59,59,0,0,1-1.79,16.58c-.89,3.55-2.94,6.8-4.28,10.26-.41,1-.94,2.17-1.27,3.28a5.3,5.3,0,0,0-.26,2.72c.79,3.47,1.16,7.14,2.27,10.38,1.83,5.38.62,9.88-1.51,14.57-1.71,3.73-3,7.7-5.11,11.2-2,3.31-3.52,7-7.45,9s-7.24,4.88-10.63,7.63a29.72,29.72,0,0,0-5.11,5.51,3.33,3.33,0,0,0,2.45,5.31,11.39,11.39,0,0,0,3.16-.29c2.34-.4,4.67-.87,7-1.28a80.73,80.73,0,0,1,8.26-1.35A35.9,35.9,0,0,1,683,625c.86.13,1.86,1.39,2.24,2.35a14,14,0,0,1,1.23,5.37c-.14,4.06,1.14,7.68,2.27,11.48,1,3.39,2.13,6.3,5.3,8a4.23,4.23,0,0,1,2.46,3.78c.07,1.05.47,2.09.48,3.14,0,5.62.08,11.29-4.81,15.38a3.79,3.79,0,0,0-1.15,4.66c.7,1.75,1.63,3.32,3.82,3.7,1.52.26,3.41.43,4.41,1.39a52.58,52.58,0,0,1,11.61,16.05q2.14,4.68,4.12,9.43a33,33,0,0,1,1.2,3.77c.56,1.89.75,4,1.68,5.65a13.21,13.21,0,0,1,1.57,7.28,34.08,34.08,0,0,0,.18,6c.26,1.94,1,3.55,3.55,3.48a4.3,4.3,0,0,1,2.87,1,40.67,40.67,0,0,1,6,6.43c4.37,6.46,8.84,12.91,12.54,19.75,5.74,10.61,10.88,21.54,16.28,32.34a20.65,20.65,0,0,0,1.81,3.5c3.31,4.3,6.79,8.47,10.11,12.76,1.87,2.41,3.62,4.92,5.29,7.46,1.2,1.82,2.47,3.56,4.71,4a3.25,3.25,0,0,0,2.49-.63c1.46-1.39,1.22-5.89-.26-7.27a28,28,0,0,1-7.79-12.32,65.57,65.57,0,0,0-3.23-7.24c-1.21-2.66-2.68-5.22-3.62-8-2.56-7.52-4.89-15.12-7.35-22.69-.32-1-.91-1.89-1.33-2.86-2-4.62-4.37-9.11-4.53-14.33a7.54,7.54,0,0,0-1.06-4.15c-1.84-2.35-1.83-4.82-1.63-7.55.42-5.74.09-11.19-3.57-16.29-3.21-4.48-4-10-4-15.6a20.14,20.14,0,0,0-.2-3.56c-.76-4.61-1.41-9.19-.4-13.88.44-2.05.52-4.27-1-6.1-3.74-4.38-6.18-9.55-9-14.5a34.77,34.77,0,0,1-4.65-20.23,31.53,31.53,0,0,0-.06-6c-.45-3.73.6-7,1.94-10.45a61,61,0,0,0,2.9-10.32,9.23,9.23,0,0,0-.68-4.62c-.75-2.1-2-4-2.82-6.1-3.48-8.38-1.39-16.26,3-23.48,2.3-3.77,2.9-6.94,1.56-11.18-1.47-4.64-1.93-9.62-2.73-14.47a59.73,59.73,0,0,1-.67-6.68,7.62,7.62,0,0,1,.48-3.29,48.51,48.51,0,0,1,2.83-5.2,89.68,89.68,0,0,1,5.61-9.11c2.76-3.56,6-6.73,9-10.17a14.47,14.47,0,0,1,5.88-4.61c1.77-.66,3.45-1.66,3.17-4s-.85-4.25-3.48-5.2a14.64,14.64,0,0,0-8.55-.83c-4,.9-8.08,1.51-12.14,2.14a7.37,7.37,0,0,1-2.26-.23c-3.15-5.48,1.92-8.27,3.48-12.29-.87-1.09-1.72-2.1-2.49-3.16-.92-1.27-1.77-2.58-2.65-3.88a27.22,27.22,0,0,1-3.82-10c-.91-4.49-2.79-8.92-.82-13.64a4.18,4.18,0,0,0-.1-3.11c-1.82-3.57,0-6,2.1-8.63a24.31,24.31,0,0,0,2.35-4.43c.41-.82.68-1.7,1.07-2.53,2.15-4.56,4.44-9.06,6.43-13.69a9.94,9.94,0,0,0,.94-5.38,33.37,33.37,0,0,1,.22-11.88c1.35-8.24,2.9-16.46,4.26-24.7a19.65,19.65,0,0,0,0-5.14,3.63,3.63,0,0,0-3.23-3.56c-1.9-.18-3.22,1-3.87,2.84-.28.75-.39,1.57-.7,2.3a25.32,25.32,0,0,1-6.41,9.08,5.78,5.78,0,0,1-.38-2.49c.09-2.92.91-6.05.12-8.7-1.23-4.13-.45-7.83.47-11.71a6.35,6.35,0,0,0,0-3.15c-.35-1.13-.65-2.31-1-3.47a19.2,19.2,0,0,0-2.24-5.45c-4.61-7-3.25-14.58-3-22.1,0-.66.64-1.31,1.2-2.36a10.94,10.94,0,0,1,1.21,2.42c.95,5.36,1.82,10.74,2.71,16.1.59,3.55,1.1,7.11,1.83,10.63a2.42,2.42,0,0,0,.1.36c.58,1.82,2.68,3.52,4,3.49s3.61-2,4-4c.3-1.42.24-2.92.45-4.36.64-4.29,1.37-8.56,4-12.33a7.66,7.66,0,0,1,4.81,5.12l-2.42,1.29c1.64,1.8,2.95,3.28,4.31,4.71.91,1,1.94,1.81,2.84,2.79,2.45,2.66,3.93,5.48,2.73,9.37-1.51,4.87.23,8.87,4.18,12,.31.24.61.51.91.78,5.19,4.88,10.21,9.74,13.2,16.56,2.25,5.13,1.8,10.73,4,15.74a1.88,1.88,0,0,1-.06,1.19c-1,3.15-2,6.3-3.1,9.44-.43,1.25-1,2.46-1.49,3.68-1.62,3.76-2.87,7.75-5,11.2s-.45,7.61,3.89,7.81c4,.19,6,2.75,7.43,5.65a139.79,139.79,0,0,0,7.68,14.65,4.62,4.62,0,0,1,.62,3.28,8,8,0,0,0,1.34,6.81,10.86,10.86,0,0,1,1.41,3.26,102.41,102.41,0,0,1,2.6,12.5c.41,3.85,2.32,6.86,3.89,10.19,3,6.47,5.45,13.24,8.24,19.83,2.13,5,4.41,10,6.71,14.87a7.89,7.89,0,0,0,2,2.44c2.47,2.18,4.67,1.68,5.86-1.38a7.45,7.45,0,0,0,.35-3.12c-.51-7.83-1.2-15.64-1.61-23.47-.32-6.22-.38-12.46-.48-18.69-.07-4.78,0-9.56,0-14.34,0-1.32.11-2.65.24-4,.39-4.13,0-8.44,2.81-12,.43-.54.25-1.55.41-2.33a18,18,0,0,1,4.65-9.55,6.75,6.75,0,0,0,1.5-1.85c1.09-2.43,3.07-3.47,5.51-4.17,4.19-1.19,5.55-4.58,3.29-8.32a67,67,0,0,0-5-7.14c-2.81-3.51-5-7.4-5.45-11.81a90.34,90.34,0,0,1,1.85-31.68A47.65,47.65,0,0,1,831,390a36.93,36.93,0,0,1,9,10.23,12.35,12.35,0,0,0,2.15,2.84c2.44,2.09,5,1.46,6.61-1.3,1.23-2.08.58-4.13.29-6.21-.5-3.69-1.18-7.36-1.48-11.06-.38-4.75.77-9.56-.71-14.29A7,7,0,0,1,847,367c.79-4.17,1.71-8.32,2.47-12.49a8.09,8.09,0,0,0,.11-3.9,10.79,10.79,0,0,1,.67-8.18,72.77,72.77,0,0,1,6.31-10.58c2.39-3.54,6.56-6,6.62-10.92,0-.22.24-.46.42-.65,3.21-3.4,4.68-7.69,6.07-12,.48-1.48,1.13-2.64,3.16-2.9a10.57,10.57,0,0,1,.34,1.42c.4,6.11,1,12.21,1.09,18.31,0,3.53,0,7.43-1.45,10.52-2.69,5.84-4.23,12-6.1,18-.4,1.28.49,3,1,4.5s1.34,2.56,1.66,3.92c1.57,6.71,2.22,13.62,4.66,20.14.67,1.79,1.16,3.86-.76,5.56-.4.35-.1,1.49-.11,2.27a21.9,21.9,0,0,1,0,4c-1.53,8.1-3.15,16.19-4.77,24.28-.5,2.47-1.4,4.9-1.64,7.4-.58,6.26-3.18,11.79-6.06,17.19-2.4,4.5-2.24,6.91.75,11.21,1.94,2.78,4.21,5.49,4.46,9.2a32.79,32.79,0,0,0,1.17,7c2.46,8.32,4.32,16.7,3.29,25.47a18.3,18.3,0,0,0,1.21,9.77,11,11,0,0,1,.55,3.91c.13,4,.71,7.92,2.93,11.47a12.36,12.36,0,0,1,1.54,4.48c.76,4.45,1.46,8.91,1.95,13.4.46,4.23.85,8.5-1.32,12.51a6.66,6.66,0,0,0-.42,2.74c-.17,4-1.52,7.19-5.95,9.16-2.43-4.6-7-7.76-8.46-13.15a20.18,20.18,0,0,0-1.86-4.39c-1-1.81-2.9-2.66-4.26-2A3.59,3.59,0,0,0,854,548a21.9,21.9,0,0,0,1.26,5,26.56,26.56,0,0,1,2,16.74,4.61,4.61,0,0,0,1.13,4.41,11.46,11.46,0,0,1,2.94,6.86c.25,2.11.42,4.23.61,6.34.2,2.33.62,4.39,3.16,5.49a7.34,7.34,0,0,1,4.27,5.94,55.67,55.67,0,0,0,2.88,10.71,11.38,11.38,0,0,1,.42,3.95c-.16,4-.48,7.91-.71,11.87s-.85,7.63-3.38,10.85a6.53,6.53,0,0,0-1.12,3.33c-.44,5.44-3.13,10.12-5,15.08-.83,2.23-2.16,2.69-4.52,2.12-3.23-.79-6.45-1.56-8.53-4.66a3.79,3.79,0,0,0-3-1.34,3.86,3.86,0,0,0-2.6,6.06c1.06,1.51,2.59,2.67,3.72,4.13,3.86,5,7.47,10.26,11.5,15.14a11.2,11.2,0,0,1,2.65,8.86,19.19,19.19,0,0,0,.84,7.84,19.91,19.91,0,0,1,.88,10.19c-.82,3.87-.87,7.9-1.34,11.85-.79,6.58-1.14,13.26-2.57,19.71-2.16,9.7-4.71,19.36-7.81,28.8-2.85,8.64-5.16,17.54-9.51,25.65a17.56,17.56,0,0,0-1,2.58c-1.79,5.12-3.4,10.32-5.38,15.37s-4.39,9.93-6.48,14.93a7.58,7.58,0,0,0-.45,3.51c.17,2,1.44,2.79,3.37,2.31a6.58,6.58,0,0,0,4.4-3.71c2.06-4,4.43-7.88,6.66-11.81,1.11-2,2.81-3.83,3.16-5.91.86-5.23,3.84-9.18,6.79-13.24a52.75,52.75,0,0,0,3-4.67c1.45-2.52,2.8-5.09,4.22-7.62,2.39-4.26,4.73-8.55,7.24-12.75,2-3.42,4.25-6.75,6.47-10.06,1.48-2.2,3.1-4.3,4.67-6.43,3.24-4.41,6.19-8.85,6.12-14.73a24.62,24.62,0,0,1,1.37-8.61,50.74,50.74,0,0,0,3.06-13.93,6,6,0,0,1,2.72-4.65,7.21,7.21,0,0,0,2.94-5.39,30.62,30.62,0,0,1,2.07-7.23c2.51-6.29,4.32-12.83,7.82-18.77a14.44,14.44,0,0,0,1.28-12.64,23,23,0,0,1-.92-9.07,24.88,24.88,0,0,1,2.16-7.48c.74-1.81,2.09-3.35,3-5.07,3.7-6.61,7.21-13.32,12.2-19.13,2.84-3.31,4.64-7.1,4.08-11.71a12.57,12.57,0,0,1,.15-4.37c1.2-4.89,2.62-9.72,3.89-14.59,1.34-5.12,2.68-10.21,5.24-14.9a15.43,15.43,0,0,0,1.13-4.23c.36-1.75-.69-2.67-2.11-3.39a3.15,3.15,0,0,0-4,.46,6.63,6.63,0,0,0-1.47,2.33,19.6,19.6,0,0,1-4.47,7.45,76.26,76.26,0,0,0-11.43,14.32,12.93,12.93,0,0,1-2.17,2.11c-.43-1.08-1-1.78-.93-2.44a48,48,0,0,1,.75-7.09c.67-3.23.81-6.49-.92-9.26S908.88,573.8,909,571a79.38,79.38,0,0,1,1-9.09c.65-4.33,1.43-8.63,2.24-12.93a16.26,16.26,0,0,1,1-2.75c2.43-.12,2.55,1.38,2.76,2.89a49.36,49.36,0,0,0,4.66,14.35c.94,2,3.24,3.15,4.83,2.64,1.93-.63,2.78-2.31,2.46-4.87,0-.26-.16-.52-.17-.78q-.36-6.92-.7-13.84c-.28-5.82-.53-11.64-.81-17.45-.11-2.19-1.08-4.4.18-6.81a32.57,32.57,0,0,0,13.43,1.43c5-.35,6.7,2.13,4.62,6.7a18.27,18.27,0,0,0-1.36,7.74c0,2.27,0,4.53,0,6.79,0,4.13-.54,8.31,0,12.35a90.19,90.19,0,0,0,3.22,13.16c.92,3.24,4.16,4.11,6.52,1.67a19,19,0,0,0,3.4-5.31,12,12,0,0,1,4-5l10.57,4.9c0,.79-.14,1.58-.12,2.36A3.45,3.45,0,0,0,974,572.7a44.08,44.08,0,0,0,5.51-.36c4-.49,4.88.42,4.07,4.18s-.11,6.06,3.37,7.5c4.82,2,5.8,5.83,5.75,10.31,0,3.85-.65,7.74-.32,11.55a33,33,0,0,1-1,11c-1.34,5.41-2.75,10.79-3.94,16.23-.28,1.26-1.09,3,.74,3.93,1.28.68,4.07,0,5.18-1.15.26-.28.39-.69.64-1,1.21-1.4,2.51-2.72,3.64-4.18a49.08,49.08,0,0,0,3.57-5.14c.73-1.25,1.09-2.71,1.7-4,3.16-6.89,6.51-13.69,9.44-20.68a29.49,29.49,0,0,0,1.74-8.49c.66-6.74,1-13.52,1.61-20.27a12.43,12.43,0,0,1,1.06-3l1.06,0a33.89,33.89,0,0,1,1.53,4.26c.61,2.85.88,5.79,1.54,8.63a19.75,19.75,0,0,1-.31,9.45,22.72,22.72,0,0,0-.55,5.53c0,2.69,1,3.85,3.27,4.24,1.95.35,3.2-.42,4.2-2.81s1.51-5.23,3-7.37c2.56-3.82,3.13-8.09,3.93-12.38.25-1.3.71-2.56,1-3.86,1-4.54,2-9,1-13.8-.65-3.05-1.06-6.54-.2-9.42a85.37,85.37,0,0,0,1.71-9.34c1-5.63,2.14-11.2,6.89-15.26,2.39-2,2.11-4,.1-6.58-1.28-1.65-2.86-3.45-3.19-5.38-1-5.6-2.17-11.22-1.71-17a5.7,5.7,0,0,1,2.48-4.72c.88-.61,2-1.85,1.9-2.74-.32-4.46,2.26-8.14,3-12.3a6.33,6.33,0,0,1,3.18-4.77c.5.54.89.91,1.2,1.32,2.11,2.75,2.88,2.84,5.25.5.76-.74,1.46-1.56,2.23-2.29,2.52-2.4,4.26-2.05,5.82,1.09a10.25,10.25,0,0,1,.76,7.77,27.79,27.79,0,0,1-3.29,7.65A12.45,12.45,0,0,0,1061,502c2,5.16,1.84,10.45,1.38,15.75-.23,2.64-1,5.19,0,7.85a3.18,3.18,0,0,1-.39,2.67c-2.4,2.92-2.43,6.71-3.93,9.94a38.78,38.78,0,0,1-2.45,4.53,24.63,24.63,0,0,1-11.32,9.67c-3.38,1.41-3.81,3.5-2.12,6.83.36.71.94,1.32,1.23,2.06.67,1.7,1.75,3.45,1.75,5.18,0,7.4.91,14.87-1.13,22.18a4.36,4.36,0,0,0,.1,2c1.48,6.85-.16,13.51-1.2,20.19a45.74,45.74,0,0,1-2,7.72c-2.41,7.18-4.88,14.34-7.48,21.45a115.82,115.82,0,0,1-5.06,12.11,51.47,51.47,0,0,1-6,9.38,26.59,26.59,0,0,0-4.14,6.71c-1,2.55-2,5.48-3.86,7.27-3.75,3.55-6.3,7.81-8.94,12.07-2.31,3.72-3.87,7.49-2.54,12.08.52,1.81.06,3.95-.17,5.91s-.77,3.63-1.1,5.45c-.69,3.91-1.28,7.85-2,11.75s-2.13,7.93-2.39,11.94c-.36,5.81,0,11.68.14,17.52.06,2,.06,3.93-1.25,5.69a4.19,4.19,0,0,0-.57,2.56c.17,2.91.42,5.82.79,8.7a66.6,66.6,0,0,0,1.48,8.19c.2.77,1.35,1.53,2.22,1.82a16.71,16.71,0,0,0,4,.52,2.31,2.31,0,0,0,2.7-1.84,29.61,29.61,0,0,0,.37-3.89c.32-4.21,0-8.57,1.08-12.59a224.68,224.68,0,0,1,7.66-24.22c1.75-4.54,2.16-9.7,5.6-13.57a2.56,2.56,0,0,0,.37-1.9c-.44-2.43.6-4.4,1.67-6.43,1.85-3.54,3.55-7.16,5.43-10.68,2.06-3.87,4-7.81,6.44-11.45,3.84-5.81,8.94-10.55,14.34-14.86,2.57-2.07,3.77-4.55,4.76-7.54A39.36,39.36,0,0,1,1059,661c4-6,8.51-11.57,12.87-17.29a10.24,10.24,0,0,1,2.47-1.55c.29,7.26.06,13.92,2.25,20.29a9.39,9.39,0,0,1,0,3.17,13.76,13.76,0,0,0-.11,2.39c.29,2.15,2.49,3.79,3.86,2.79,1.55-1.14,3.06-2.31,3.47-4.61.92-5.14,2.22-10.22,3.42-15.32.24-1,.76-2,1.07-3,1.36-4.42,2.55-8.9,4-13.28,1.39-4,3.1-7.91,4.68-11.85a47.4,47.4,0,0,1,2.48-5.81c2.88-5,7-9,11.07-13,2.89-2.89,6.1-4.5,10.26-4.2a13.66,13.66,0,0,0,8.68-2.48,9.3,9.3,0,0,1,1.92-.7c.17,3.71-1.89,6-3.59,8.47a15.9,15.9,0,0,0-2.44,4.45,70.13,70.13,0,0,1-4.64,13.1,29.78,29.78,0,0,0-2.07,5.18c-1.56,5.2-2.92,10.46-4.53,15.64a27,27,0,0,0-.82,11c.42,4.19.28,8.43.45,12.65a26.29,26.29,0,0,0,.46,3.52c.26,1.63.75,3.19,2.57,3.7,2,.56,3.38-.8,4.35-2.18a7.86,7.86,0,0,0,1-3.66c.55-5.72,1.6-11.28,4.27-16.45,3.83-7.42,8.64-14.34,11.63-22.21,1-2.69,3.54-4.18,5.25-6.26a162.65,162.65,0,0,1,19.15-20.29,2.67,2.67,0,0,0,.91-1.28c.77-3.37,3.13-5.41,5.73-7.39C1171.35,592.74,1171.8,591.45,1170.59,588.94ZM1016,392.13c-3.42.13-6.85.07-10.27.22a13.46,13.46,0,0,0-4.67.76,4.53,4.53,0,0,0-2.39,2.73c-.19.84.8,2.07,1.51,2.93a3.77,3.77,0,0,0,2.09,1.08c2.94.58,4.58,2.81,5.85,5.07,1.47,2.61,2.31,5.58,3.44,8.39.74,1.85,1.64,3.64,2.2,5.53a58.44,58.44,0,0,1,1.54,6.94c.5,3,.9,6,1.22,9a9.4,9.4,0,0,1-.23,3.47,67.92,67.92,0,0,1-10.74,22.16,27.49,27.49,0,0,1-3.22,3.52,5.55,5.55,0,0,0-1.83,5.78,78.61,78.61,0,0,0,3,9,14.12,14.12,0,0,1,1,9.25c-1.13,4.89-1.44,10-2.32,14.92-.51,2.87-1.5,5.64-2.16,8.48-.36,1.55-.46,3.16-.71,4.73a7.69,7.69,0,0,1-.46,1.92c-1.8,3.87-5.71,5.88-7.83,9.56a8.71,8.71,0,0,1-.66-8c1.42-4.13,1.37-4.07-2.27-6.48a4.62,4.62,0,0,1-1.51-2.54c-2.29-8.45-2-17.17-1.81-25.75.11-6.43.57-13,2.43-19.3a7.64,7.64,0,0,0,.31-2c0-1.67-.21-3.23-2.13-3.83a4.14,4.14,0,0,0-5.16,1.83,6.74,6.74,0,0,0-.87,3c.06,3.64-1.71,6.63-3.17,9.75-1.95,4.17-5,7.79-6.23,12.35-.42,1.53-1.8,2.8-2.74,4.19l-.92-.08a21,21,0,0,1-1.19-4.35c-.17-3.17.26-6.36-1.09-9.44-.38-.87.09-2.09,0-3.14a12.2,12.2,0,0,0-.53-4.27,8.12,8.12,0,0,1,.17-6.95c1.78-4.15,3.56-8.3,5.53-12.36,1-2,1.84-4,.87-6.06a7.93,7.93,0,0,0-2.59-2.73c-.88-.65-2.48-.67-2.94-1.45-1-1.64-2.18-3.28-1.84-5.52a60,60,0,0,0,.86-9.53c0-3.6,1.29-6.63,2.81-9.65,6.58-.93,13.14-1.84,19.69-2.8a12.36,12.36,0,0,0,3.08-.8c3.07-1.29,4-4,2.34-6.78a29.94,29.94,0,0,0-3-3.66c-1.13-1.31-2.34-2.54-3.4-3.89a3.11,3.11,0,0,1-.38-3.66,4.9,4.9,0,0,0-1.68-6.62c-3.36-2.35-6.84-4.56-10.39-6.62s-4.13-3.31-2.69-7.1c1.32-3.46,2.28-7,4.51-10.15,1.38-1.95,1.06-4.72,2.5-6.93,2.59-4,4.78-8.25,7-12.45a27.69,27.69,0,0,0,2.58-5.79c1-3.52-1.91-6.21-5.32-4.94a19.4,19.4,0,0,0-5,3.17c-3.07,2.42-3.13,2.55-6.94,3.47.27-2.28.41-4.1.72-5.89.7-4,1.32-8.12,2.29-12.1,1.17-4.83,3.67-9.07,6.49-13.14a70.89,70.89,0,0,0,4.46-7.05c1.86-3.49,1.15-7.12-.57-10.35a40.24,40.24,0,0,1-3.9-13.28c-.6-4.05-1.83-8-2.7-12a19.39,19.39,0,0,1-.42-3.94c0-5.72,0-11.44,0-17.15a1.89,1.89,0,0,1,0-.4,66.19,66.19,0,0,1,7.59-18.12A6,6,0,0,1,986,231c.24,5.83.31,11.67.48,17.51a46.19,46.19,0,0,0,.34,5.13,3.27,3.27,0,0,0,2.87,2.93,3.49,3.49,0,0,0,3.84-1.54,76.09,76.09,0,0,0,3.64-7.07c2.1-4.71,4.08-9.48,6.06-14.24a11.8,11.8,0,0,0,.49-2.32c.52-2.57,1-5.15,1.6-8a6.68,6.68,0,0,1,4.29,3.74c1.28,2.32,2.75,4.55,3.82,7a58,58,0,0,1,2.72,7.83,3.26,3.26,0,0,1-.6,2.57c-1.94,2.32-1.88,5-1.33,7.58a20.17,20.17,0,0,1-.63,11.67c-1.53,4.19-1.73,8.84-2.73,13.23a50.36,50.36,0,0,1-2.69,8.7,5.79,5.79,0,0,1-3.22,2.74c-3.3,1.09-4.61,3.88-6.18,6.45-1.45,2.37-2.61,4.92-4,7.35-2.17,3.85-2.3,8-1.41,12.12.5,2.37,4,3.38,6.3,1.88a69.76,69.76,0,0,0,6-4.61c3.67-2.92,7.05-2.54,10,1.17s4,8.35,4.67,13a9.18,9.18,0,0,1-.66,3.46c-.8,3.08-1.77,6.11-2.43,9.22a6.51,6.51,0,0,0,1.58,5.86,21,21,0,0,1,3.5,7.06,33.52,33.52,0,0,1,1.87,12.08c-.25,4.11,0,8.24-.22,12.35a61.26,61.26,0,0,1-1.18,7.82c-.19,1-.8,2-1,3C1021.25,390.43,1019.72,392,1016,392.13Zm43.13,28.54c-.65,4.05-.93,8.16-1.36,12.25a2.71,2.71,0,0,1,0,.4c-1.26,4.25-2.23,8.37-1.21,13,.56,2.57-1,5.64-1.72,8.47-1.1,4.48-2.26,8.94-3.61,14.23-2.48-2.65-3.6-4.84-3.92-7.54a14.31,14.31,0,0,0-1-4.24,11.09,11.09,0,0,1-.68-7.37,6.66,6.66,0,0,0-.16-3.1,11.45,11.45,0,0,1,1-8.49c1.13-2.28,1.78-4.4.63-7.11-.6-1.4.33-3.6.91-5.33,1.6-4.78,3.16-9.58,5.15-14.2,1.66-3.85,1.64-7.68,1.43-11.71-.31-5.81-.76-11.7,1.92-17.22a5,5,0,0,0,.38-1.95c.15-3.93,2.68-6.7,4.82-10.43.14,1.7,3.45-11.17,1.25-13.66a12.56,12.56,0,0,1-3-6.35c-.46-3.51-.08-7.13,0-10.71a26.48,26.48,0,0,0,.31-2.76c-.55-5.29,1.16-10.19,2.49-15.16a12.72,12.72,0,0,0,.43-2.74c.15-3.29-2.83-5.28-5.53-3.45a76.92,76.92,0,0,0-6.87,5.94c-.68.6-1.39,1.16-2.24,1.85-1.84-2.34-1.38-4.64-.68-6.92s1.39-4.3,2.2-6.41c2-5.2.38-10.2-1.93-14.55-2.6-4.88-3.14-9.69-2.81-15,.38-6.24.46-12.5.51-18.75,0-3-.39-6.07-.51-9.11-.23-5.87,3.18-10.18,6.4-14.55a15.16,15.16,0,0,1,1.76-1.62c2.85-2.82,3-5.53.28-8.35-6.87-7.08-8.39-15.36-5.77-24.63,1.18-4.15,1.42-8.08-2-11.54a16.13,16.13,0,0,1-3-4.69,10,10,0,0,1-1-4.49,5.46,5.46,0,0,0-1.64-4.61c-2.71-2.79-5.17-5.8-5.25-10A2.22,2.22,0,0,0,1035,167c-3.17-4.6-3.38-9.95-4-15.22-.22-2-.5-3.92,1.08-6.14,1.36,2.67,2.89,4.89,3.66,7.34,1.62,5.16,4.3,10.09,3.84,15.79-.23,2.84,2.18,3.74,4.05,4.91,2.13,1.34,4.42,2.45,6.5,3.85a10.5,10.5,0,0,1,3.81,4.89c2.25,5.23,2.56,10.84,3.79,16.26a10.3,10.3,0,0,0,.25,2c1.76,3.7,2.09,7.69,2.29,11.67.4,7.95,1.8,15.91-.17,23.84-.48,1.92-1.5,3.74-1.71,5.67-.61,5.54-.93,11.11-1.37,16.67,2.24,3.7.86,7.71,1.07,11.58a11.23,11.23,0,0,0,1,4.24c1.14,2.31,3.65,2.43,5.05.27a12.27,12.27,0,0,0,1.32-3.67c.47-1.8.63-3.7,1.23-5.45s1.56-3.7,4.08-4.05c1.51,1.77,1.33,4,1.5,6,.2,2.55.55,4.94,2.24,7.09a5.31,5.31,0,0,1,.76,3.69c-.67,4.32-1.48,8.62-2.48,12.88s-2.26,8.45-3.4,12.68a4,4,0,0,0-.35,1.54c1,6-1.65,11.48-2.7,17.18-.72,3.84.29,6.51,3.54,8.91,3.54,2.63,4.66,6.94,5.71,11.06.39,1.54.33,3.2.78,4.72a15.56,15.56,0,0,0,2.11,5,10,10,0,0,1,2.12,6.63c-.21,7,0,14.08-.35,21.1a54.31,54.31,0,0,1-1.87,11.76c-.77,2.74-2.63,5.17-3.93,7.78s-2.34,5.05-3.65,7.5a47.23,47.23,0,0,1-3.59,5.68,5.13,5.13,0,0,1-2.32,1.33c-1.21.47-3,.39-3.61,1.22A13.65,13.65,0,0,0,1059.17,420.67Z"/><path class="cls-1" d="M666.8,581.82a4.78,4.78,0,0,0,2.17-2.64,3.44,3.44,0,0,1,3.5-2.74c3.62.27,4-2.56,5-4.74a52.46,52.46,0,0,0,1.8-6.42c.41-1.48.94-2.94,1.34-4.42.15-.57.28-1.14.38-1.71,1.32-7.58,2.49-15.18,3.76-22.77.41-2.47-1.17-4.24-3.63-3.83a5.87,5.87,0,0,0-4.22,3.27,22.71,22.71,0,0,1-4.29,5.1c-1.32,1.21-2.55.61-2.69-1.17a14.27,14.27,0,0,1,.38-3.54c.72-3.78,1.73-7.52,2.19-11.33.44-3.55.31-7.18.46-10.77.29-7.08,1-7.4,7.17-4a5,5,0,0,0,4-.07,4.22,4.22,0,0,0,1.76-3.19,12.35,12.35,0,0,0-1.12-5,112.84,112.84,0,0,0-5.12-10.34,10,10,0,0,1-1.13-8.36c.79-2.68-.35-4.6-2.83-5.89-1.64-.86-3.39-1.57-4.94-2.58-1.75-1.14-3.81-2.17-4.24-4.52-.72-3.92-1.39-7.84-1.94-11.78-.29-2.1-.3-4.24-.43-6.36s-.28-4.46,1.22-6.5c1.62-2.21,1.41-4.49.26-7.08a17.9,17.9,0,0,1-1.83-8c.42-6.18-.24-12.48,1.67-18.57.39-1.22-.26-2.84-.65-4.21a20,20,0,0,0-1.56-3.67,36.68,36.68,0,0,1-2.65-7.72c-1-3.91-1.88-7.87-4.22-11.3a2.75,2.75,0,0,1-.27-1.16c-.71-5.4-1.56-10.78-2.08-16.19-.3-3.15,0-6.35-.08-9.52-.05-3.74-3.21-7.14-6.79-6.76a6.71,6.71,0,0,1-6-2.42c-2.38-2.5-4.61-5.13-7-7.57-1.29-1.29-3.21-2.05-4.24-3.48A30.58,30.58,0,0,1,626,330.5c-2.05-5.71-4.5-11.36-4.23-17.64a1.36,1.36,0,0,0,0-.4,4,4,0,0,0-4.63-3.38c-2.1.2-2.92,1.3-3.23,3.74a94,94,0,0,1-1.8,11.76,40,40,0,0,0-1.37,13c.25,3.32,1.12,6.7.69,9.92-.85,6.42-1.78,12.89-5,18.74-1.51,2.74-4.24,3.39-5.86.83a40.61,40.61,0,0,1-4.46-8.82,23.71,23.71,0,0,1-1.2-10.61,25.5,25.5,0,0,0-.14-6c-.57-5.56-1.31-11.09-.11-16.68a7.84,7.84,0,0,0-.1-3.57c-1.63-6.08-1-12.18-.23-18.26.57-4.74,1.34-9.47,2.33-14.15.85-4,.84-4.45-2.79-6.79-2.22-1.43-4.91-2.55-6.45-4.54-3.42-4.41-6.32-9.26-7.27-14.92-.22-1.35-.24-3.23.51-4.16,2.12-2.62,2.8-5.7,3.71-8.75,1.48-5,5.21-8.57,7.67-13,.18-.32.63-.49.93-.75,1.37-1.21,2.88-2,4.73-1.25,1.45.58,2.27,2.82,2.16,5.14a6.75,6.75,0,0,0,.34,3.06q4.62,9.69,9.47,19.26c1.7,3.34,3.77,6.47,7.26,8.25,2.69,1.36,5.54,1.23,6.66-.39,1.44-2.08.43-4.06-.66-5.95a10.91,10.91,0,0,1-.89-1.32,10.56,10.56,0,0,1-1-3.4c-.06-5.85,0-11.71.11-17.56a7.53,7.53,0,0,1,3.06-5.81c1.6,5,3.14,9.6,4.59,14.26a6.34,6.34,0,0,1,.29,2.76c-.6,3.8.74,7.31,1.66,10.84,1.67,6.36,2.69,12.73,1.64,19.28a49.82,49.82,0,0,1-1.39,4.87c-.83,3.18-1.61,6.37-2.43,9.56-.39,1.53-.84,3-1.2,4.59a71.67,71.67,0,0,0-1.64,7.72c-.27,2.38.74,3.38,3,3.84a5.21,5.21,0,0,0,5.41-2.52c1.43-2.4,2.71-4.9,4.31-7.17a42.87,42.87,0,0,0,5-9.94c1.44-3.82,3.49-7.4,5.3-11.08a4.71,4.71,0,0,1,.77-.91c2.18-2.49,4.68-4.77,6.47-7.51,2.05-3.14,3.42-7,1.6-10.55-3.4-6.56-4.71-13.48-5-20.7-.11-2.25.58-4.67,0-6.76-1.21-4.37-.3-8.29.88-12.47,1.4-5,.75-9.89-3.23-14a93.8,93.8,0,0,1-6.64-7.95,59.82,59.82,0,0,1-5.81-8,53.62,53.62,0,0,1-3.38-8.94c-.88-2.71-1.88-5.22-4.49-6.82a4.13,4.13,0,0,1-1.48-2.29,45.07,45.07,0,0,1-1.5-6.58c-.85-6.32-1.49-12.68-2.33-19a15.55,15.55,0,0,0-1.38-4.55c-1.07-2.21-3.57-3.29-5.3-2.07a6.35,6.35,0,0,0-2.31,3.86A79,79,0,0,1,612,162.19a53.6,53.6,0,0,0-1.39,5.82,41.65,41.65,0,0,0-1.12,5.37c-.17,1.81-.6,4.11.26,5.41,3,4.51,2.71,10,4.79,14.73.49,1.1.26,3.47-.5,4a24.06,24.06,0,0,1-6.89,3c-.69.2-1.9-.72-2.63-1.39-2-1.8-3.81-3.71-5.64-5.63-1.64-1.7-2.71-3.53-1.76-6.1a10,10,0,0,0,.3-3.9c-.17-2.79-1.15-4.07-3.12-4.42a4.2,4.2,0,0,0-4.81,2.59c-1.85,3.68-3.45,7.48-5.26,11.18a44.4,44.4,0,0,1-2.5,4.09c-2.94-.77-3.27-2.79-3.79-4.73a87.67,87.67,0,0,0-3-10.31c-1.18-2.91-1.63-5.52-.12-8.39a5.6,5.6,0,0,0,.81-3.42c-1-4.43.39-8.44,1.94-12.39,2.08-5.29,2.76-10.95,5-16.27s2.76-11.27,4-16.94a6.88,6.88,0,0,0,.18-1.18,5.53,5.53,0,0,0-2.75-5c-1.68-.75-3.67-.1-5.29,1.78a9.84,9.84,0,0,0-.89,1.32c-3.67,5.92-6.25,12.55-11.5,17.45a6.9,6.9,0,0,0-1.65,2.72c-2.19,6.31-7.79,10.9-8.86,17.77-.06.33-.49.6-.73.92-3.12,4.12-6.35,8.16-9.32,12.39a11,11,0,0,0-1.18,10.95c2.16,5.71,4.42,11.53,5.35,17.5,1.16,7.45,1.19,15.11,1.33,22.68,0,2.84-.94,5.71-1.53,8.55a4.66,4.66,0,0,1-.81,1.35,12.46,12.46,0,0,1-6.17,4.83c-4.05,1.62-7,4.74-10,7.71-2,1.94-1.92,3-.31,5.23a8.87,8.87,0,0,0,2.86,2.56c2.92,1.56,5.94,2.94,8.95,4.34,1.27.59,2.35,1.19,2.29,2.86-.17,4.43,1.84,7.85,5,10.77a5.15,5.15,0,0,1,1.48,5.14c-.92,4.27-1.87,8.55-2.8,12.83-.57,2.6.13,4,2.54,5,5.29,2.3,7.5,6,7.23,11.89a11.13,11.13,0,0,0,.11,2.77c1,4.69,2.24,9.32,2.88,14a124.83,124.83,0,0,1,1,15.1,5.18,5.18,0,0,1-2.06,4c-2.91,1.48-3.4,3.84-3.54,6.6a12.14,12.14,0,0,1-.33,2.77c-1.51,5-.76,10,.24,15,1.23,6.11,2.62,12.22,1.81,18.59a23.14,23.14,0,0,0,.51,6.71c.57,3.4,1.24,6.69.51,10.23-1.45,7.1-.63,14.27-.21,21.43.18,3,1.56,5.27,3.27,7.55,1.39,1.86,3.08,1.82,5,1.29,2.06-.58,2-2.29,1.9-3.89a23.37,23.37,0,0,1,1.52-10.55c1.61-4.21,3.93-8.23,5-12.56,1-4.17,3.77-6.28,7-8.12,3.78-2.12,5.48-1.44,7.83,2.29,1.41,2.22,2.78,4.85,4.88,6.14,3.19,2,4.74,4.07,3.53,7.58.63.53,1.06.85,1.44,1.23,1.49,1.49,3,2.55,5.3,1.51s2.64-2.72,2.56-4.89a10.81,10.81,0,0,1,2.36-7c1.67-2.24,3.07-4.68,4.7-6.94,1-1.37,2.2-2.57,3.68-4.25.89,1.4,1.84,2.29,2.06,3.33.69,3.37,1.12,6.79,1.62,10.19.4,2.62.16,5.56,1.31,7.78a9,9,0,0,1,.86,6,20.57,20.57,0,0,0-.17,4.77c.36,4.41-1,8.39-2.72,12.32-.63,1.46-1.2,3-1.76,4.44-.89,2.35-1.68,4.74-2.62,7.07-1.85,4.53-4.44,8.83-4.61,13.86-.12,3.44.19,6.89.16,10.34s.58,5,2.68,5.57c2.39.68,3.4-.05,5.07-3.76,1.08-2.4,2.5-4.33,5.16-4.62,1,1.81,1.55,3.74,2.82,4.91,2.68,2.48,3.82,5.7,5.09,8.89a10.76,10.76,0,0,1-7.83,14.39A26.44,26.44,0,0,0,623.8,500c-4.62,1.9-5.26,6.66-1.34,9.66,1,.8,2.37,1.26,3.36,2.11,1.7,1.45,3.81,2.8,4.74,4.68,2.31,4.63,4.12,9.5,6,14.34a9.49,9.49,0,0,1-.44,8.12,9.57,9.57,0,0,1-2.58-.72c-1.54-1-2.66-.27-4,.43-2.45,1.25-2.86,3.3-2.72,5.69.13,2,.21,4-1.15,5.72-1.5,1.89-3.51,1.7-4.68-.44-1.41-2.56-2.78-5.12-4.14-7.7-2.54-4.82-1.65-9.8-.71-14.8q1.1-5.85,2.14-11.71c.34-1.91-.76-2.65-2.43-2.91-2.9-.46-4.73,1.18-6.42,3.2-2.38,2.85-4.77,5.68-7.24,8.44-2.22,2.48-3.92,2.54-6.47.43a40.79,40.79,0,0,0-4.29-3.53c-2.65-1.63-3.36-3.93-3.06-6.82a17.45,17.45,0,0,0,0-3.54c-.47-4.73-1-9.44-1.51-14,3.18-1.57,4.92-5,4.23-8a3,3,0,0,0-1.22-1.95c-4.26-1.83-6.48-5.28-7.9-9.45a4.15,4.15,0,0,0-.63-1c-3.35-4.5-4.6-9.83-5.58-15.15-1.05-5.75-1.49-11.61-2.28-17.41a10.17,10.17,0,0,0-1.17-3.73c-1.37-2.3-3.82-2.56-5.7-.66a26,26,0,0,0-2,3c-.76,1-1.43,2.35-2.48,2.93a3.2,3.2,0,0,0-1.7,3.67c.84,5.87-1.55,11.81.5,17.67.37,1.05,0,2.38-.15,3.57-.88,11.13-.9,22.08,2.25,33.06a35.49,35.49,0,0,1-2.34,26.8,68.13,68.13,0,0,0-4.36,11.16c-1,3.31-1.41,6.81.29,10.12,1.09,2.12,2,2.44,4.2,1.84,1.9-.52,4-.67,5.7-1.51,3.51-1.7,5.71-.24,7.88,2.36,3.81,4.59,7.91,8.95,11.62,13.62,2.24,2.82,3.91,5.9,2.2,9.93-1.24,2.9-.63,3.81,2.89,6a21.93,21.93,0,0,1,10.17,14.07c1.6,6.81,3.4,13.58,5,20.41a27.49,27.49,0,0,1,.19,5.15,9.6,9.6,0,0,0,.22,3.15c1.21,3.06,2.58,6.06,4,9a65.16,65.16,0,0,0,3.39,6.73c1.8,2.93,3.79,5.74,5.83,8.5a3.19,3.19,0,0,0,4,1,3.58,3.58,0,0,0,2.33-3.81c-.07-1.06-.27-2.11-.42-3.16-.59-4.34-1.3-8.66-1.73-13a16.25,16.25,0,0,1,1.35-8.54c1.1-2.4,1.8-5,.93-7.76-.32-1,.19-2.32.41-3.47,1.25-6.35,6.12-10.76,8.8-16.36,1-2.18,3.17-2,4.89-.08a22.42,22.42,0,0,0,3.29,3.38,4,4,0,0,0,6-1.59,12.57,12.57,0,0,0,.42-2.34c1.2-4.92,3.27-8.87,9-9.9A29.48,29.48,0,0,0,666.8,581.82Z"/><path class="cls-1" d="M617.35,743.67c.51-7.78-1.46-15.26-1.85-22.91-.28-5.44-.91-10.86-1.42-16.28-.38-4.09-.8-8-4.38-11.07a19.88,19.88,0,0,1-5-8c-3.48-9.48-6.59-19.09-9.78-28.68-.71-2.14-1.14-4.37-1.68-6.57-1.73-6.95-3.6-13.88-3.19-21.16,0-.26-.12-.52-.11-.78,0-1.68-.34-3.53.23-5,1.52-3.87.4-6.47-2.7-9-5.31-4.39-9.42-9.75-11-16.66-.48-2-.7-4.16-1.15-6.22-1-4.67-2.24-9.29-3-14-.55-3.19-1.19-4.71-4.27-5.45-4.75-1.12-7.52-4.28-9.51-8.37-1.17-2.39-2-4.92-3.24-7.29a33.87,33.87,0,0,1-3.15-18.65c.7-7.8,1.84-15.59,3.21-23.3.62-3.47.59-6-2.52-8.37-3.81-2.93-5.2-7.2-4.56-12.09.77-5.94,1.34-11.91,2.12-17.85a27.83,27.83,0,0,1,1.43-6.19c1.08-2.83,2.51-5.52,3.6-7.87A25.45,25.45,0,0,1,553,457.5c-.83-2.78-1.33-5.66-2-8.5-1.23-5.42-2.95-10.74-3.16-16.38a52.24,52.24,0,0,0-1-5.46c-.24-1.67-.37-3.37-.45-5.06a21.33,21.33,0,0,0,.1-3.18c-.65-3.25.18-6.33,1-9.39,1.39-5.4,3.31-10.7,4.27-16.17a28.63,28.63,0,0,0-.41-10.63c-1-4.9-2-9.63-.2-14.52a12.22,12.22,0,0,0,.63-3.52q.45-8.56.78-17.15c.15-3.86.34-7.67,2.26-11.2a6.66,6.66,0,0,0-.55-7.51,15.06,15.06,0,0,1-2-4.33c-1.09-3.67-2.14-7.37-2.92-11.11a5.3,5.3,0,0,1,1-3.28c1-1.72,2.11-3.21-.48-4.56-.42-.21-.69-1.14-.66-1.72.07-1.72.33-3.42.51-5.14a37.5,37.5,0,0,0,.45-5.48c0-.89-.76-2.32-1.44-2.5-1.13-.29-3.18-.22-3.61.47-1.58,2.53-3.6,5.35-3.69,8.12-.12,3.63-1,7.06-1.45,10.58a10.88,10.88,0,0,1-3.26,6c-2.54-.56-3.55-2.07-4.11-4.18a20.44,20.44,0,0,0-1.69-3.54,11,11,0,0,1-1.08-2.51c-.51-2.72-.92-5.46-1.28-8.2a8.7,8.7,0,0,1,.06-2.79c1-4.95,1.87-9.93,3.12-14.81.72-2.8.37-4.88-1.94-6.72a6.93,6.93,0,0,1-2.32-3c-2-6.35-4.05-12.78-3.87-19.48.29-10.66-1.1-21.53,3.32-31.79,1.67-3.88,3.06-7.9,4.92-11.7,2.18-4.47,3.16-8.72-.15-13.09-2.42-3.18-2.36-6.68-.91-10.23,1.91-4.65,4.08-9.21,5.76-13.94a38,38,0,0,1,5.67-10.46,14.28,14.28,0,0,0,2-3.46c1.94-5,3.19-10.36,7.31-14.27a3.84,3.84,0,0,0,.6-1.46c1.92-5.26,5.14-9.82,7.95-14.59,2.49-4.23,5.08-8.41,7.33-12.77,2.37-4.59,4.12-9.52,6.64-14,3.89-6.95,8.25-13.62,12.32-20.47a15.93,15.93,0,0,0,2.16-5.11c1-5.2,3.8-9.24,7.21-13a8.52,8.52,0,0,0,1.66-2.64c1.79-4.85,2.14-10.13,4.55-14.81.4-.77.32-2.51-.19-2.86a4.76,4.76,0,0,0-3.31-.41,4.09,4.09,0,0,0-2.12,1.66c-2.32,3.21-4.55,6.49-6.8,9.75-2.9,4.22-4.21,9.32-8.25,13S573.71,72.31,570,76.54a26.45,26.45,0,0,1-2.14,1.8,5.12,5.12,0,0,0-1.36,1.43c-2,4.22-5.7,7-8.6,10.41a110.09,110.09,0,0,0-7.64,10.1c-2.77,4.21-5,8.76-9.51,11.57a14.58,14.58,0,0,0-2.83,2.78,48.91,48.91,0,0,0-7,10.07c-1.86,3.59-5.16,6.43-5.44,10.85a1.19,1.19,0,0,1-.39.68c-2.68,2.71-4.4,6.33-8,8.18a61,61,0,0,0-5.65,3.77c-3,2-4.22,5-4.5,8.47-.58,7.26-.85,14.55-3.7,21.44-.73,1.79-.68,3.89-1.05,5.83a44.81,44.81,0,0,1-1.47,7c-1.29,3.58-2.86,7.07-4.49,10.52-3,6.35-5.83,12.8-9.29,18.89-2.13,3.74-5.27,6.93-8,10.31-3.59,4.42-7.54,8.56-9.12,14.3-.44,1.6-1.62,3-2.47,4.49-.2.34-.62.64-.65,1-.12,1.39-.66,3.19,0,4.07s2.65,1.33,3.86,1.06c1.42-.32,2.71-1.52,3.89-2.53,2.42-2.06,4.66-4.35,7.14-6.35a15.71,15.71,0,0,1,3.68-1.65,6,6,0,0,1,.32,5.48c-.85,2.69-1.41,5.39-.42,8.22a3.94,3.94,0,0,1-1.13,4.4c-2.15,1.95-4.33,3.89-6.63,5.66-3.38,2.59-6.89,2.45-10.3,0-1.5-1.09-2.93-2.29-4.4-3.42-2.26-1.72-4.64-3.33-7.62-2.88a4,4,0,0,0-2.79,1.78c-.37.83.27,2.17.64,3.22.15.44.75.73,1.16,1.07,5.61,4.65,9.62,10.64,13.56,16.63A29.66,29.66,0,0,0,480,296c5.62,2.58,9.63,7.07,14.27,10.8,1.33,1.07,2.07,3.08,2.67,4.8a66.62,66.62,0,0,1,3.86,22.32,13,13,0,0,1-.94,4.65,9.56,9.56,0,0,0,1.23,9.45,95.38,95.38,0,0,0,6.2,8.31c2.32,2.72,4.3,5.39,3.57,9.26a6.5,6.5,0,0,0,.42,2.29,10.54,10.54,0,0,0,1.17.54,3.38,3.38,0,0,1,2.68,3.86c-.17,2.14-2.69,13.88-4.89,15.72-1,.85-2.17,1.16-3.18,0a26,26,0,0,1-3.45-4.35c-2-3.73-3.79-7.6-5.69-11.4a16.81,16.81,0,0,0-1.67-2.72c-1.82-2.34-4.05-2.11-5.11.71a9.51,9.51,0,0,0-.52,5c1,4.67,2.49,9.23,3.58,13.89.91,3.87,1.21,7.92,3.95,11.15a3.88,3.88,0,0,1,.46,1.5q2.14,8.06,4.29,16.11a3.26,3.26,0,0,0,.49,1.09c1.82,2.38,2.05,5.1,1.87,8a34.72,34.72,0,0,0,.1,4.78c.27,3.35.59,6.65,4.22,8.41a3.62,3.62,0,0,1,1.42,2.23c2.59,10.53,2,21.16.1,31.64-.71,4-3.26,7.68-5.21,11.38-.79,1.49-2.28,2.59-3.37,3.93-3.18,3.9-3.3,6.72-.41,10.8a36.65,36.65,0,0,1,6.68,14.79c.5,2.74.45,5.83,1.77,8.11,2.3,4,3.36,8.28,4.69,12.55,2.24,7.22,3.19,14.82,6.53,21.71a7,7,0,0,1,.3,2.37c.23,2.38.45,4.75.69,7.32,4,1.44,4.23,4.5,3.5,8.11-.53,2.6-.61,5.29-1,7.92a5.22,5.22,0,0,0,2,5.3,5.05,5.05,0,0,1,1.93,6c-.82,3.1-.22,3.83,2.65,5.35,6.2,3.27,10.62,8.32,14,14.35,2.06,3.73,3.58,7.76,5.8,11.37,1.61,2.61,2.86,5.24,2.41,8.21-.63,4.19,1.46,6.93,3.92,9.91,2.94,3.56,5.34,7.57,7.94,11.42a4,4,0,0,1,.64,1.86c.57,9,2,18,1,27.1a85.06,85.06,0,0,0-.12,12c.09,2.67,1.06,3.6,3.16,3.83s3.41-.67,4.29-2.8c.25-.61.21-1.4.59-1.88.62-.77,1.46-1.84,2.25-1.87s1.82.91,2.36,1.69c2.55,3.7,5,7.44,7.43,11.25,1.81,2.9,3.45,5.91,5.06,8.92,1.44,2.68,2.54,5.57,4.17,8.12a25.37,25.37,0,0,1,4.08,9.82,65.66,65.66,0,0,0,5.91,19.21c1.17,2.35,2.58,4.63,2.54,7.45,0,3.92.07,7.85.14,11.77a1.57,1.57,0,0,0,2.49,1.46A7.33,7.33,0,0,0,614,771a16.58,16.58,0,0,0,4.08-12.55C617.67,753.5,617,748.54,617.35,743.67Z"/><path class="cls-1" d="M553.49,683.92a3.49,3.49,0,0,1-1.76-1.93c-.74-3.08-1.35-6.21-1.81-9.35-.75-5.12-1.2-10.29-2.07-15.38-.6-3.51-1.67-6.94-2.62-10.38a4.28,4.28,0,0,0-1.29-2.42c-2-1.3-2.66-3.56-4.1-5.2-3.78-4.31-5-9.54-4.92-14.84a20.36,20.36,0,0,0-5.8-15c-4.78-5.21-9.7-10.59-12.61-17.26-2-4.48-3.79-9-5.65-13.54-1.08-2.66-2.36-5-5.56-5.66A3.41,3.41,0,0,1,503,571.3c-.92-3-1.32-6,2.11-8.53A20.31,20.31,0,0,1,507.5,565c1.17,1.45,2.13,3.06,3.24,4.54,3,4,6.43,3.56,8.38-.94.32-.72.66-1.44,1.19-2.6a13.82,13.82,0,0,1-6.51-9.43,6.93,6.93,0,0,0-.65-1.45c-3-6.51-6.17-13-7.71-20.05a9,9,0,0,0-5.51-6.45c-6-2.59-8.22-10.3-7.16-15.45a28.69,28.69,0,0,0-.3-12.24,18.37,18.37,0,0,1-.6-6.68c1.08-6.53,1.36-13.23,3.93-19.47a8,8,0,0,0-.9-8c-1.68-2.38-3.32-4.79-5.13-7.07-2.18-2.73-1.85-5,1.16-6.77,2.14-1.24,2.93-2.22,1.72-4.93-2.11-4.73-.07-9.42-.5-14.13-.34-3.82,1-7.88,2-11.7,1.32-4.76.45-8.33-3.36-11.76-4.33-3.89-5.73-9.52-6.36-15.11-.52-4.57-.19-9.24-2.36-13.52a2.24,2.24,0,0,1-.27-1.15c.28-2.89.49-5.8.94-8.66.55-3.54,1.31-7.05,2-10.56.52-2.7.5-5.45,2.28-7.93,1.28-1.79.71-4.2-.47-6.07a37.19,37.19,0,0,1-5.35-18.07c-.31-5-.12-10.11-.16-15.18a15.27,15.27,0,0,0-.06-2.79,4.68,4.68,0,0,0-4.39-3.8c-2.77.07-3.39.72-3.94,3.88-.53,3-1.14,6-1.77,9-.68,3.18-1.43,6.35-2.33,10.35-1.73-1.37-3.1-2-3.84-3.1-3.21-4.68-7.2-8.9-8.67-14.67a20.3,20.3,0,0,0-2.49-5c-2.5-4.32-4.66-8.67-3.61-13.95.21-1.05,0-2.71-.68-3.34-2.45-2.24-3.08-5.16-3.92-8.1a23.26,23.26,0,0,0-2.14-4.22c-1.25-2.34-2.63-4.61-3.75-7-1.3-2.77-1.93-6-3.67-8.39-3.31-4.64-4.93-10-7.24-15-4.63-10.13-9.75-20.08-13.05-30.79a3.63,3.63,0,0,0-4.62-2.75,4.09,4.09,0,0,0-3.24,4.4,49.78,49.78,0,0,0,.88,6.32c1.94,9.22,4.46,18.35,5.8,27.66,1.67,11.67,6.34,22.47,8.78,33.9,1.31,6.17,3.36,12.18,5,18.28,1.59,5.89,2.95,11.84,4.72,17.67a15.23,15.23,0,0,1-.84,11.54c-1.48,3.19-4.18,5.85-4.23,9.77-.05,3.18-.6,6.36-1,9.53-.3,2.58.24,4.86,2.62,6.2s4.59.52,6.62-1.11a57.19,57.19,0,0,1,4.81-3.54c1.34-.86,2.64-1,3.82.55a42.18,42.18,0,0,0,4.88,5.77,4.16,4.16,0,0,1,1.15,4.3c-1.33,6.91-2.11,13.94-5.95,20.16-.84,1.34-1.16,4.05-.36,5.16,2,2.78,2.73,6,4.18,8.93,2.68,5.41,2.91,11,2.74,16.72a53.44,53.44,0,0,0,.13,8.77,11.63,11.63,0,0,1-3.08,10.26c-2,2.17-2.12,4.69-.82,7.41,1.42,3,2.64,6.1,3.87,9.18,1,2.58,1.67,5.33,2.93,7.78,3.09,6,2.45,12.38,2.28,18.71-.09,3.29-.63,6.57-.93,9.86-.42,4.56.14,9.27-3.32,13.19-1,1.09-1.06,3.29-.9,4.91.19,1.79,1.16,3.5,1.75,5.25.42,1.27,1.61,2.4.95,4.12-1.54-1.71-2.82-3.32-4.31-4.72-2.28-2.16-3.84-2.42-6.37-.57-1.91,1.39-3.39,1.08-5.06-.12-2-1.46-4.06-2.91-6.31-4.52.77-4-.56-7.41-3-10.88-2.1-2.95-3.36-6.55-4.68-10a34.65,34.65,0,0,1-1.24-6.24c-.68-3.93-2.61-5.17-6.46-4.08-.51.15-1,.59-1.47.61-1.92.07-3.84,0-5.82,0-.13-1.86-.13-3.2-.34-4.49a59.09,59.09,0,0,1,.37-23,5.61,5.61,0,0,0-1.78-6A17.2,17.2,0,0,1,402,430.53c-.62-9-2.82-17.89-2.19-27,.15-2.3-1.39-3.4-3-4.26a3.7,3.7,0,0,0-4.39,1c-2,1.95-3.85,3.89-4.27,7a68.54,68.54,0,0,1-2.29,9.27c-.15.52-.79.9-1.28,1.42-1.85-1.37-2.24-3.18-2.71-5-1.36-5.17-3.14-10.15-6.32-14.57a5.56,5.56,0,0,1-.83-3.34,9.78,9.78,0,0,0-3.93-8.95c.73-3.29,1.34-6.42,2.16-9.5a3.9,3.9,0,0,1,1.62-2c2.91-1.87,3.19-2.41,2.52-5.76s-1.77-6.73-1.89-10.12c-.33-9.29-.88-18.63,2-27.72a8.58,8.58,0,0,0-.58-7.35c-5.75-9.09-8.55-19.46-12.8-29.21-1.36-3.13-1.22-6.57-.4-10.06a9.55,9.55,0,0,1,3,3.17,106.66,106.66,0,0,1,5,10.37c2.38,6,6.25,11.12,9.94,16.3a3.72,3.72,0,0,0,6.55-1.15,9.44,9.44,0,0,0-.09-4.19c-.36-2.07-1.22-4.09-1.39-6.17a92.5,92.5,0,0,0-3.86-18.25c-1.5-5.18-4.38-10-3.85-15.76a3.94,3.94,0,0,0-.79-2.19,17.2,17.2,0,0,1-2.29-11.13c.28-2.77.39-5.56.46-8.35a4.84,4.84,0,0,0-.55-2.63,30.59,30.59,0,0,0-7.58-8.59c-3.43-2.47-7.1-5-9.62-8.27-3.9-5.1-8.47-9.88-10.56-16.22-.24-.72-1-1.27-1.33-2-.48-.93-.8-1.95-1.23-2.91-.58-1.3-1.14-2.62-1.81-3.88-.86-1.64-2-3.17-2.68-4.87-1.39-3.31-2.15-6.95-3.94-10-3.27-5.62-6.53-11.17-8.56-17.43-1.3-4-3.55-7.73-5.2-11.65-1.95-4.63-3.59-9.4-5.59-14-1.52-3.5-2.76-4-6.78-3.64-2.67,2.1-2.36,4.67-1.36,7.3a17.08,17.08,0,0,1,1.18,8.19,4.28,4.28,0,0,0,.53,2.67,21.88,21.88,0,0,1,3.46,12,17.59,17.59,0,0,0,1.08,4.56c1,3.12,2.66,6.16,3,9.34a49.62,49.62,0,0,0,4,14.37c.4,1,1.31,2.16,1,2.85-1.08,2.61.12,4.78,1.14,6.84a18.94,18.94,0,0,1,1.61,7.73c.14,2.92.32,5.85.29,8.77-.06,5.54,2.3,9.94,5.86,14a13.11,13.11,0,0,1,2.68,5.2,27.55,27.55,0,0,1,.68,6.74c0,3.74-.43,7.29-2.74,10.58a45.84,45.84,0,0,0-4.46,8.88c-1.25,3-1.47,6.16.7,9.08.7.94,1,2.17,1.64,3.18,1.59,2.55,1.15,5.1.12,7.66-.67,1.68-1.81,2.52-3.76,2a9,9,0,0,0-2.7,0c-1.68.1-3.36.29-5.05.38a19.61,19.61,0,0,0-3.92.1,4,4,0,0,0-3.29,3.59,4.28,4.28,0,0,0,3,4.23,6.51,6.51,0,0,0,1.93.48,10.87,10.87,0,0,1,7.35,3.62c2.13,2.34,3.83,5.09,6.13,7.23a9.38,9.38,0,0,1,3.17,7c.05,3.17.26,6.48-.51,9.5-1.17,4.57-.79,7.81,3.21,11.16A13.69,13.69,0,0,1,341.38,353c-.56,4.21-1.41,8.06-3.9,11.53a6,6,0,0,0-1.2,2.92c-.42,6.54-3,12.21-6.62,17.53-1,1.47-1.27,3.45-2.26,4.94-3.42,5.17-2.25,10,3.41,12.77a9.55,9.55,0,0,1,4.71,4.69c1.26,2.78,2.25,5.68,3.34,8.54,1.45,3.83,2.88,7.67,4.35,11.5a4.16,4.16,0,0,0,.9,1.3,46.73,46.73,0,0,1,7.29,9.85c1.08,2,1.86,3.7,1.38,6-.37,1.74,1.88,10.54,3.06,11.7,1.9,1.86,1.42,3.85.76,5.92-.92,2.9-1.85,5.79-2.87,8.65a13.61,13.61,0,0,0,.16,9c1.94,6,.83,6.59,8.23,6.7,5.86.08,10.77,2.49,13.63,7.59a88.92,88.92,0,0,0,4.74,7.71c1.45,2.08,1.44,4.41,1.75,6.82-3.93,1.47-7.75,1.3-11.6,1.13a45.74,45.74,0,0,0-7.94.09c-1.82.24-3.55,1.29-3.64,3.62a4.17,4.17,0,0,0,3.28,4.47c3,1,6.14,1.76,9.23,2.53,3.87,1,7.81,1.65,11.62,2.78,5.75,1.7,11.51,3.44,17.06,5.65,3.12,1.25,5.86,3.44,8.7,5.32.46.31.57,1.17.81,1.79,1,2.61,2,5.2,2.93,7.84a4.75,4.75,0,0,0,3.83,3.56,62.74,62.74,0,0,1,7.24,2.2c6.18,2.12,9.89,6.44,11.3,12.8a25.35,25.35,0,0,0,.77,2.67c1.78,5.41,3.5,10.85,5.36,16.24,2.16,6.25,4.44,12.46,6.59,18.5,5.5,0,7-1.07,7.29-5.6a88.44,88.44,0,0,0-.35-10.28c-.08-1.38-.3-2.76-.58-5.14,2,1,3.32,1.24,4.16,2,5.41,5.23,10.41,10.7,10.44,19,0,3.53,1.66,6.12,5.37,6.93a38.9,38.9,0,0,0,5.08,1,12.31,12.31,0,0,1,6.65,2.45c1.9,1.45,4.09,2.59,5.76,4.26a45.61,45.61,0,0,1,4.26,5.85,9.56,9.56,0,0,0,1.47-.08c4.25-.76,4.13-.69,6.2,2.83a77.53,77.53,0,0,0,5.6,8.2c1.72,2.21,3.68,4.19,4.07,7.17a5.13,5.13,0,0,0,1.38,2.33c2.39,2.82,4.85,5.57,6.39,9a12.16,12.16,0,0,0,2.39,3.14c1.76,1.89,3.25,3.84,3.2,6.62a2.46,2.46,0,0,0,.67,1.77c2.89,2.33,3.54,5.85,4.93,9,2.88,6.43,5.49,13,8.7,19.25a44,44,0,0,1,4.37,15.11c.23,1.95.59,4.16-.07,5.88-1.18,3.09-.06,4.77,2.64,6.3l4.08-1.32a53.81,53.81,0,0,1,0-5.82,11.67,11.67,0,0,1,1.29-4.84A19.42,19.42,0,0,0,556,694.13c0-2-.27-4-.21-6S555.31,684.84,553.49,683.92Z"/><path class="cls-1" d="M435.9,655.67a28.93,28.93,0,0,0-1-4.69q-1.12-5.25-2.23-10.52c-.63-3-1.16-6-1.86-9q-2.22-9.51-4.61-19a3.66,3.66,0,0,0-1.36-1.81c-4.72-3.43-7.9-8.1-10.83-13a5.13,5.13,0,0,0-2.64-2.21c-2.6-.79-3.87-2.67-4.81-4.94-2.32-5.6-4.59-11.22-6.92-16.81a17.66,17.66,0,0,1-1.67-9.28c.48-3.7-.62-4.89-4.36-5.84-.65-.17-1.3-.32-1.95-.47a13.22,13.22,0,0,1-8.63-5.82c-2.68-4.06-5.37-8.19-9.94-10.5a2.69,2.69,0,0,1-.9-.78c-4.6-6-10.7-10.33-16.4-15.12a17.5,17.5,0,0,1-3.61-4.2c-2.07-3.36-4-6.81-5.8-10.32a9.22,9.22,0,0,1-1-4.23c.11-3.68-1.72-6.68-3.14-9.79a3.31,3.31,0,0,0-5-1.72,13.83,13.83,0,0,0-3.43,3.16,18.15,18.15,0,0,0-1.12,2.1c-1.35,2-2.47,2.1-4.16.3a34.83,34.83,0,0,1-2.61-3.52,64.32,64.32,0,0,0-4.2-5.79,7,7,0,0,1-1.78-6.24c1.06-6.82,2-13.66,3.08-20.48,1.3-8.54,2.79-17.07,6.31-25,1.7-3.83.62-6.54-2.28-8.73-5.16-3.9-7.07-9.74-8.35-15.4-1.7-7.53-1.16-15.4.46-23,1.28-5.95,3.15-11.78,4.77-17.66.18-.64.45-1.25.59-1.9.44-2.09.39-3.8-2-4.93-2.86-1.34-4.13-3.94-4.48-7.1-.45-4.17-.05-8,3.46-10.87.27-.23.32-.71.63-1.43-3.21-2.95-3.54-6.66-2-10.73,2.54-6.81,2.26-14.11,3.58-21.13.33-1.75.2-3.59-1.8-4.42s-3.9-1-5.56.7c-2.32,2.38-4.67,4.74-6.91,7.2-1.76,1.93-3.37,4-5.45,6.49-1.24-5.48-2.92-10.22-3.25-15.06-.37-5.25.77-10.58.76-15.88,0-4.69,1.91-8.5,4.23-12.25,3.66-5.9,3.37-9.95-2-14.32a11.38,11.38,0,0,1-4.09-7.34c-.34-1.84-.55-3.7-1-5.5-2.05-7.85,2.3-17.66,10.32-20.56,2.93-1.06,3.75-5.38,1.49-7.67a8.6,8.6,0,0,0-4.34-2.59,12.38,12.38,0,0,1-6.23-3.3,25.35,25.35,0,0,0-3.19-2.37,21.06,21.06,0,0,1-9.47-12.32,47.87,47.87,0,0,0-3.45-8.89c-2-3.61-4.28-7-5.24-11.1a4.79,4.79,0,0,0-1.84-2.89c-4.19-2.29-5.21-6.53-5.67-10.44-.72-6.05-4-11.24-4.81-17.17,0-.25-.33-.45-.36-.7C265,151.2,260.3,147,260,141c-.13-2.49-2.48-3.29-4.88-2.35-3,1.19-3.74,2.82-2.93,6,1,3.8.55,7.88,2.32,11.54a2.19,2.19,0,0,1,0,1.19c-.95,6.86.29,13.47,2,20.08A70,70,0,0,1,258.77,190c.26,3.91-.85,8,1.94,11.41a.6.6,0,0,1,.08.38c0,6.32,1,12.69-3.4,18.35-2,2.52-3.72,4.23-7,4.23-4.28,0-8,1.85-11.53,4.11-3,1.92-3.24,4.66-.47,6.79a22.76,22.76,0,0,0,6.26,3.26c1.91.66,3.56.92,3.11,3.61-.22,1.38.8,2.29,2.17,2.95,5.58,2.67,9.39,7.64,14.31,11.19.4.29.58.88.89,1.31,2.52,3.53,2,7.89,3,11.82.57,2.19,1,4,2.85,5.32,1.22.89,2.44,2.23,1.55,3.71-1.4,2.35-.85,4.92-1.45,7.32-1.28,5.16-3.19,10.09-6.66,14.2-2.38,2.81-3.87,5.72-2.53,9.46,1.8,5,3.28,10.12,5.44,14.94a63.3,63.3,0,0,1,5.52,17.39,6.81,6.81,0,0,0,2.4,4.39c2.66,2.37,2.63,6,0,9.07a13.41,13.41,0,0,1-1.46-.4c-2.21-.87-4.35-2.15-6.65-2.57-3.66-.65-7.42-.66-11.13-1.07a14.48,14.48,0,0,1-4.6-1.1,4.3,4.3,0,0,1-2.09-2.58,74.58,74.58,0,0,1-1.55-9.84c-.51-6.5-1.75-7.58-8.15-7.25a11,11,0,0,1-5.71-1.07c-3.41-1.89-6.16-4.49-6.58-8.84-.36-3.66-1.14-7.27-1.62-10.92a34.47,34.47,0,0,1-.18-4.77c0-5.17.06-10.35.19-15.52.07-2.76.4-5.52.51-8.29.09-2.11.05-4.23,0-6.34,0-1.4-.38-2.67-1.95-3.13a4,4,0,0,0-4.42,1,17.43,17.43,0,0,0-2.67,4.42c-2.53,6-4.94,12-7.37,18-1.14,2.83-2.31,5.66-3.33,8.53-1.59,4.5-3.21,9-4.55,13.56-1.52,5.21-2.66,10.53-4.18,15.74a7.65,7.65,0,0,1-2.41,3.46c-2.63,2.17-5.3.84-7.84-.39-2.17-1.05-2.28-3.11-2.21-5.15.06-1.59.41-3.19.35-4.77a70.87,70.87,0,0,0-.67-9.9c-.58-3.37-3.25-4.16-5.91-2.08-.57.44-1.09.95-1.7,1.48-.44-.57-.69-.87-.9-1.19a10.24,10.24,0,0,0-.62-1c-3.45-3.79-3.46-7.73-.92-12.07a6.67,6.67,0,0,0,.51-4.54,19.49,19.49,0,0,1,.12-9.48,11.17,11.17,0,0,0,.39-3.14,12.74,12.74,0,0,1,.86-5.4c.58-1.46.9-4,.08-4.88-3-3.37-4.59-7.36-6.37-11.33-1.39-3.11-2.83-6.2-4-8.66,2.11-2.91,4.29-5,5.37-7.62a27.33,27.33,0,0,1,8.46-11.52c.25-1.82,0-3.62.74-4.85,2.64-4.44,5.56-8.72,8.45-13,1.8-2.68,1-5.32-2.14-6.1-1.79-.45-3.6-.65-5.31.71-3.41,2.71-7,5.25-10.43,7.89a3.72,3.72,0,0,0-.71.9c-2.46,3.29-5.94,4.37-10.08,4.94-.14-1.24-.62-2.35-.27-3,1.1-1.87.22-3.49-.07-5.28-1.16-7.17-1.12-14.29,2-21,1.29-2.79,1.35-5.47-.48-7.92a28.15,28.15,0,0,1-4.34-10.19,51.17,51.17,0,0,0-1.78-4.84,33.91,33.91,0,0,1-2.29-12c0-3.46,0-6.93-.27-10.37-.44-5.53-.2-10.92,2.17-16,1.79-3.87.7-7.13-1.75-10.33a66.77,66.77,0,0,1-4.75-7.35c-1.71-3-2.92-6.29-4.89-9-3.81-5.32-4.68-11.57-5.92-17.62-1.16-5.64-1.21-11.51-2-17.23-.27-1.86-.15-4-1.77-5.55a5.48,5.48,0,0,1-1-3c-1-7.21-2-14.42-2.93-21.64a8,8,0,0,1-.22-2c.35-2.88-4.11-24-4.34-26-.32-2.77-.38-5.58-.81-8.33-.36-2.31-1.85-3.21-4.35-3.1-2.31.11-3.2.93-3.32,3.57-.14,3.17,0,6.35-.08,9.53q0,3.18-.25,6.36c-.3,4.35-.81,8.7-1,13.05-.17,5,0,10,0,15.06,0,3.32.15,6.65.07,10-.19,7.83-.41,15.66-.76,23.49-.24,5.44,0,11.07-1.31,16.25a30.92,30.92,0,0,0-.28,14.52c.45,2.17.18,3.79-1.8,4.68a4,4,0,0,0-2.41,4.2,34.79,34.79,0,0,0,.85,6.25c1.44,6.43,6.55,11.54,6.66,18.46a.75.75,0,0,0,.13.38c2.08,2.91,1.93,6.25,2,9.6,0,2.38.39,4.77.57,7.16.26,3.55.52,7.11-1.51,11.16-1.4-1.8-3-3-3.49-4.62-2.05-6-3.77-12.17-5.63-18.28a9.18,9.18,0,0,0-1-3c-2.86-3.55-5.62-4.58-8-1.26a6.46,6.46,0,0,0-.83,2.62c-.77,4.28.17,8.44,1,12.6.93,4.82,2.16,9.58,2.87,14.43.82,5.65,1.22,11.37,1.78,17.07s-.1,11.15.58,16.74c.65,5.29.32,5.33,5.79,5.52.24,0,.46.23,1.08.55a21.82,21.82,0,0,0,.31,4c.63,2.52-.53,4-2.39,5.41a21,21,0,0,1-8.94,4.17c-3.58.65-7,1.86-9.07,5.34.4,3.51,2.67,6.21,4.43,9.13s3,6,1,9c-2.37,3.47-3.18,7.19-3.72,11.17-.23,1.68-1.11,3.26-1.56,4.92-.77,2.78-2.19,5.66-2,8.39.44,5.62,1.74,11.19,2.77,16.76,1.16,6.36,1.34,12.95,4.7,18.79a13.68,13.68,0,0,1,1.35,4.88c.39,2.95.89,3.68,3.12,3.63,3-.07,5.53-1.84,5.68-3.89.27-3.56.63-7.11.78-10.67a9,9,0,0,0-.63-4.17,5.18,5.18,0,0,1,.23-5.27,22.25,22.25,0,0,0,2.09-5.16c1.79-6.93,3.37-13.92,5.2-20.85.48-1.82,1.6-3.47,2.56-5.46.88.72,1.41,1,1.64,1.37,4.9,8.66,4.79,17.52.66,26.34-1.75,3.74-1.8,5.66,1,8.62,1,1.06,2,2.11,3.08,3.12,2.18,2.09,3.84,4.37,3.75,7.62a4.38,4.38,0,0,0,.93,2.51c2.09,2.78,2,5.86.82,8.74a29,29,0,0,0-2.3,8.79c-.25,3.53-1.83,4.87-5.45,5.11A18.79,18.79,0,0,1,111,339.1a34,34,0,0,0-3.07-1.83c-6.58-3.23-12.8-6.92-17.55-12.69-3.87-4.71-7.62-4.37-10.39,1.23a16.88,16.88,0,0,1-3.65-.88c-2.64-1.25-5.11-2.84-7.75-4.07-1.51-.7-3.31-1.52-4.83-1.28a8.28,8.28,0,0,1-6-1.53c-6-3.71-10.8-9.07-17.44-11.79a2.57,2.57,0,0,1-.87-.81c-3.65-4.61-8.75-7.25-13.67-10.17C19.34,291.45,12.26,288.52,7,282.8a4.87,4.87,0,0,0-1-.71c-2-1.35-4.35-1.38-5.45-.09s-.74,4,.61,5.56c.34.4.86.64,1.21,1,1.87,2.07,4,4,5.48,6.3,1.88,3.06,4.59,5.05,7.18,7.35,4.79,4.27,11,7.23,13.48,13.76a1.55,1.55,0,0,0,.43.67c3.19,2.36,6.19,5.05,9.62,7,5,2.77,8.89,6.7,13,10.43,2.25,2,4.39,4.19,6.7,6.16,1.43,1.21,3,2,5.14,1.3a4.73,4.73,0,0,1,3.3.74A40.7,40.7,0,0,1,72,345.89c4.06,3.21,8,6.55,12.08,9.75,1.34,1.05,2.81,2.4,4.38,2.64,5.68.86,10.29,4.12,15.34,6.38,3.16,1.42,6.34,2.91,7.51,6.65a1.46,1.46,0,0,0,.79.86c2.88.9,3.47,3.43,4.27,5.83.51,1.52,1,3.06,1.61,4.52,1.66,3.72,5.34,4.5,8.47,1.84a11.68,11.68,0,0,0,1.35-1.46c3.2-4,5.37-4.13,8.16,0a7.87,7.87,0,0,1,.9,4.16c0,3.44-.23,6.89-.23,10.34a7.54,7.54,0,0,1-2.15,5.4c-3.52,3.73-3.82,6-1.68,10.74a25.75,25.75,0,0,1,2.21,6.35c.84,5.36,1.42,10.77,1.93,16.18.12,1.34-.42,2.73-.71,4.4a8.56,8.56,0,0,1-2.26-.91c-4.36-3.87-8.76-7.7-13-11.74-3.07-2.94-5.74-6.29-8.79-9.26C103.68,410.2,95,402,86.4,393.68c-1.68-1.62-4.27-2.29-5.75-1.27s-1.87,3.49-.78,5.46a24.31,24.31,0,0,0,4,5.89,15.07,15.07,0,0,1,4.49,10.34c.3,4.79,2.45,8.25,5.51,11.53,1.8,1.94,3.82,3.85,5,6.15,3.48,6.6,9.48,11.53,12.21,18.6a2.2,2.2,0,0,0,.5.61,16.64,16.64,0,0,1,4,8.95c.67,4.27,1.35,4.8,5.61,5a9.48,9.48,0,0,1,1.19,0c3.25.49,4.56,2.5,4.19,5.82-.45,4.08-2.77,7.12-5.15,10.19a14.31,14.31,0,0,0-2.28,3.22c-1,2.55-.28,4.75,2.35,5.26a26.49,26.49,0,0,0,6.65.41c2.69-.17,5.47-.73,7.7,1.07a13.53,13.53,0,0,0,7.37,2.63,28.22,28.22,0,0,1,3.55.57c4.45,1.1,8.38,2.85,9.34,8a10.81,10.81,0,0,0,.6,1.47c1.81,5,4.19,6.69,9.58,6.49a10.64,10.64,0,0,1,6.38,1.79,37.14,37.14,0,0,1,10.12,9.51,8.06,8.06,0,0,0,5.13,3.41,9.26,9.26,0,0,1,4.07,2.31c3.82,3.49,6.49,7.47,6.8,13,.27,4.69,2.57,8.21,7.71,9.88,4.49,1.45,8.58,4.12,12.83,6.28a51.24,51.24,0,0,0,6,3c2.5.87,4.21,2.21,4.75,4.85,1,4.85,4,7.93,8.4,9.94,1.08.5,2.13,1.09,3.16,1.69,2.76,1.62,5.48,3.22,6.81,6.44a7.06,7.06,0,0,0,2.48,2.5,35.42,35.42,0,0,1,9.75,11,79.05,79.05,0,0,0,15.43,19.18,28.88,28.88,0,0,1,7.33,10.66,9.68,9.68,0,0,0,2.2,3.26c1.77,1.64,3.16,1.35,4.67-.52,2.25-2.78,2.41-5.76,1.12-9-1.67-4.2-3.26-8.43-4.85-12.66s-2.94-8.81-4.93-13a25.91,25.91,0,0,1-2.93-9.42,19.63,19.63,0,0,0-4-10.3,43.24,43.24,0,0,1-5.06-9.84c-1.37-3.37-2.44-7.12-6-9.12a21.32,21.32,0,0,1-7.86-8.26,45.9,45.9,0,0,1-6.45-24c0-3.46-.28-6.92-.58-10.37-.17-1.87-.52-3.89-2.55-4.66-4.48-1.69-6.45-5.48-7.83-9.53-2.17-6.4-3.91-12.94-5.92-19.4a28.16,28.16,0,0,0-2-4.73c-.88-1.66-2.28-1.71-3.69-.66a6.62,6.62,0,0,0-2.82,6.18c.47,7.29.77,14.58,1.05,21.87a40.77,40.77,0,0,1-.55,5.12c-3.34-2.67-5.48-4.92-4.89-8.79a11,11,0,0,0-.21-4.35c-.73-2.79-2.59-3.5-5.19-2.2-1.3.65-2.53,1.49-3.88,2-2.61,1-3.7.45-5-2.11-.88-1.78-1.87-3.51-2.73-5.31-2.74-5.75-5.49-11.51-8.15-17.3-.88-1.91-1.49-3.94-2.15-5.73a7.48,7.48,0,0,0-1-.42,4.08,4.08,0,0,0-1.19-.17c-4.8.38-8-1.92-10.5-5.85-1.06-1.63-1.57-2.89-1-4.72.32-.94.69-2.38.23-3-2.44-3.16-1.48-6.75-.9-9.89,1-5.55,3-10.93,4.48-16.39a4.11,4.11,0,0,0,0-2.33c-1.74-4.73-3.63-9.41-5.36-14.14-.81-2.19-1.37-4.47-2-6.58,4.59-2.63,5.87-4,5.68-7-.16-2.46.16-4.47,2.31-5.94,1.94-1.32,3.16-3.86,5.85-3.88,1.65,0,3.62.05,4.88.91a81.6,81.6,0,0,1,8.57,7c1.73,1.55,3.86,2.13,5.76,1.11a3.67,3.67,0,0,0,1.59-4.86c-1.53-3.53-.93-7.1-.74-10.65a7.35,7.35,0,0,1,10.29-6.53c3.4,1.31,5.38,4.24,7.66,6.83,1.58,1.81,1.17,3.94,1.26,6.07.23,5.57,2.32,10.07,7.8,12.39,3.31,1.39,6.6,2.82,9.93,4.16a3.69,3.69,0,0,1,2.52,2.79c.57,2.39,2.31,3.32,4.71,3.56a12.89,12.89,0,0,1,4.55,1.32c5.32,2.76,7.55,8.2,10.74,12.8a3.78,3.78,0,0,1,.34,1.14c1.09,4.62,1.29,9.14-.76,13.63-1.55,3.39-1.48,6.69,1.38,9.6,1.39,1.41,2.46,3.14,3.81,4.61,2.55,2.79,4.63,5.66,4.63,9.76,0,2.36.8,4.71,1.15,7.08.2,1.39.21,2.81.32,4.37-2.3.58-4.21,1.37-6.16,1.5-6.39.42-12.28-.08-16.64-6.13-3.31-4.59-7.67-8.43-11.67-12.5a11,11,0,0,0-4.12-3c-3.24-1-5.46-3.24-7.74-5.48-3-3-3.9-2.95-7.26.77.81,1,1.61,2.22,2.53,3.28,2.35,2.71,4.93,5.27,4.26,9.36a2.24,2.24,0,0,0,.59,1.4c3.15,4.1,6.35,8.16,9.48,12.27,3.46,4.55,6.66,9.22,8.21,14.86a7.33,7.33,0,0,0,4.06,4.68,27.38,27.38,0,0,1,4.94,3.32c2.61,2.05,5.11,4.24,7.68,6.34,5.18,4.22,9.38,9,10.35,16a9.8,9.8,0,0,0,.94,2.62c3.1,6.66,5.73,13.44,6.26,20.89.1,1.39.54,3.17,1.5,4,4.09,3.57,6.24,8.54,9.54,12.66,1.36,1.7,2.11,3.87,3.26,5.75a16.3,16.3,0,0,0,7.8,7.1,3,3,0,0,0,4.42-2.13,6.43,6.43,0,0,0-.23-4.53c-4.13-6.85-5.41-14.68-8-22a8.65,8.65,0,0,1,.45-6.86c1.74.94,3,1.88,3.69,3.64,2.12,5.57,4.26,11.14,6.5,16.66a8.22,8.22,0,0,0,8.1,5,7.42,7.42,0,0,1,3.44.65c5.07,2.62,10.42,4.81,14.7,8.73A55.75,55.75,0,0,1,344,572.7c-4.17.46,7.09,5.62,6.9,10.75-.13,3.61,1.81,5,5.42,4.84a11.07,11.07,0,0,1,7.43,2.27c4.07,3,8.67,5.4,11.2,10,1.15,2.08,2.37,2.71,4.45,1.84,1.35-.55,2.67-.63,3.68.54,3.28,3.77,6.55,7.56,9.74,11.41,1.59,1.92,3,4,4.5,6,1.3,1.82,2.52,3.69,3.76,5.55,1,1.43,1.91,2.88,2.85,4.33a44,44,0,0,1,3.78,6.09,22.27,22.27,0,0,0,3.94,5.91c3.41,3.93,6.21,8.09,7.52,13.4,1,4,3.49,7.68,5.35,11.48,1.78,3.63,3.92,7,4.51,11.24a27.19,27.19,0,0,0,2.94,8.13c.41.81,2.3,1.38,3.36,1.19.87-.16,1.63-1.52,2.2-2.5.28-.49,0-1.3,0-2a19.61,19.61,0,0,1,.86-8.63c.74-2,.36-4.47.08-6.68C437.94,663.76,436.06,659.91,435.9,655.67Z"/></g></g></svg>
